<svg xmlns="http://www.w3.org/2000/svg" width="390" height="129" viewBox="0 0 390 129" version="1.1"><path d="M 0 16.095 L 0 32.190 4.500 29.595 C 6.975 28.168, 11.025 25.832, 13.500 24.405 L 18 21.810 18 54.253 L 18 86.697 36.492 97.348 C 46.662 103.207, 55.416 108, 55.944 108 C 56.473 108, 65.251 103.209, 75.452 97.354 L 94 86.708 94 64.433 L 94 42.159 75.522 31.579 C 65.360 25.761, 56.514 21, 55.865 21 C 55.216 21, 50.066 23.700, 44.420 27 C 38.774 30.300, 33.895 33, 33.578 33 C 33.260 33, 33 28.534, 33 23.075 L 33 13.150 42.250 7.904 C 47.337 5.018, 52.388 2.060, 53.473 1.329 C 55.136 0.208, 51.100 0, 27.723 0 L 0 0 0 16.095 M 58.527 1.323 C 59.612 2.050, 72.088 9.293, 86.250 17.418 L 112 32.191 112 64.452 L 112 96.714 84.297 112.607 L 56.595 128.500 222.547 128.757 C 313.821 128.898, 389.063 128.800, 389.750 128.538 C 390.670 128.188, 391 124.264, 391 113.671 C 391 95.262, 390.323 90, 387.957 90 C 386.513 90, 386.110 88.934, 385.781 84.250 C 385.559 81.087, 385.813 77.610, 386.346 76.522 C 387.310 74.552, 387.317 74.552, 388.058 76.522 C 388.467 77.610, 388.569 80.353, 388.283 82.618 C 387.954 85.230, 388.198 87.004, 388.949 87.469 C 390.308 88.308, 389.812 60.098, 388.238 47 C 387.324 39.396, 387.914 35.002, 389.110 40.500 C 389.470 42.150, 389.817 33.712, 389.882 21.750 L 390 0 223.277 0 C 84.674 0, 56.888 0.223, 58.527 1.323 M 226.656 37.455 C 226.330 38.305, 226.238 39.563, 226.453 40.250 C 226.668 40.938, 227.126 44.313, 227.471 47.750 L 228.099 54 224.550 54 C 221.213 54, 220.999 53.805, 220.991 50.750 C 220.974 44.240, 219.722 36.832, 218.868 38.180 C 218.407 38.906, 218.024 40.985, 218.015 42.800 C 217.989 48.483, 214.701 53.190, 208.498 56.425 C 205.866 57.797, 205.769 57.988, 207.703 57.994 C 211.672 58.005, 214.901 55.778, 216.967 51.604 L 218.998 47.500 219.015 51 C 219.038 56.084, 220.098 57.188, 224.602 56.819 L 228.500 56.500 229.033 48 C 229.384 42.395, 229.171 38.889, 228.407 37.705 C 227.404 36.151, 227.169 36.117, 226.656 37.455 M 311.300 37.100 C 310.618 37.782, 310.585 39.606, 311.203 42.504 C 311.716 44.909, 311.993 48.368, 311.818 50.189 C 311.543 53.054, 311.094 53.540, 308.486 53.796 C 305.928 54.047, 305.300 53.632, 304.323 51.046 C 302.940 47.380, 300.370 47.094, 298.847 50.436 C 297.477 53.442, 298.364 56.021, 301.005 56.712 C 303.851 57.456, 303.480 58.733, 299.750 61.037 C 297.639 62.340, 295.625 62.832, 294.002 62.441 C 290.514 61.598, 292.049 62.867, 295.830 63.951 C 298.302 64.660, 299.436 64.445, 301.407 62.894 C 302.768 61.824, 304.146 60.115, 304.469 59.097 C 305.292 56.505, 312.457 55.414, 315.512 57.416 C 316.754 58.230, 318.047 58.619, 318.385 58.281 C 319.769 56.898, 318.852 54.254, 316.640 53.246 C 314.774 52.396, 314.165 51.157, 313.735 47.341 C 313.436 44.685, 313.557 41.828, 314.004 40.992 C 315.075 38.992, 312.752 35.648, 311.300 37.100 M 380.648 36.685 C 380.279 37.055, 380.184 38.739, 380.438 40.428 C 380.693 42.118, 381.167 45.889, 381.493 48.810 L 382.085 54.119 377.792 53.810 C 374.071 53.541, 373.511 53.201, 373.579 51.250 C 373.687 48.196, 372.368 48.399, 371.575 51.558 C 371.010 53.808, 370.484 54.080, 367.216 53.808 C 364.034 53.544, 363.534 53.177, 363.738 51.250 C 363.869 50.013, 363.563 49, 363.058 49 C 362.552 49, 361.995 50.013, 361.820 51.250 C 361.578 52.953, 360.739 53.574, 358.373 53.804 L 355.246 54.108 354.521 45.410 C 354.095 40.294, 353.463 37.250, 352.988 38.020 C 352.543 38.739, 352.430 42.649, 352.737 46.707 L 353.295 54.086 344.898 53.793 C 336.974 53.517, 336.504 53.376, 336.574 51.300 C 336.615 50.090, 336.277 49.329, 335.824 49.609 C 334.587 50.374, 334.833 54.433, 336.200 55.800 C 337.714 57.314, 351.194 57.406, 352.687 55.913 C 353.470 55.130, 353.962 55.130, 354.446 55.913 C 355.305 57.303, 360.676 57.333, 361.530 55.951 C 361.956 55.263, 362.583 55.239, 363.356 55.881 C 364.004 56.418, 368.576 56.778, 373.517 56.679 L 382.500 56.500 383.033 48 C 383.534 40.001, 382.455 34.879, 380.648 36.685 M 145.793 38.219 C 145.132 39.827, 145.466 46.264, 146.599 53.750 C 147.038 56.650, 147.441 57, 150.345 57 C 152.135 57, 154.092 56.508, 154.693 55.907 C 155.484 55.116, 156.495 55.278, 158.349 56.493 C 159.759 57.417, 161.454 57.837, 162.117 57.428 C 162.780 57.018, 168.312 56.715, 174.411 56.755 C 180.510 56.795, 188.650 56.442, 192.500 55.972 C 196.769 55.450, 199.871 55.484, 200.450 56.058 C 203.265 58.849, 206.322 53.943, 204.024 50.322 C 203.051 48.790, 202.954 49.021, 203.413 51.774 C 203.921 54.815, 203.815 54.971, 201.932 53.964 C 200.471 53.182, 200.075 52.266, 200.515 50.689 L 201.125 48.500 199.313 50.605 C 195.898 54.570, 192.110 54.580, 194.174 50.619 C 195.011 49.013, 194.651 49.166, 192.687 51.250 C 190.689 53.370, 189.169 54, 186.048 54 L 182 54 182 50 C 182 47.800, 181.550 46, 181 46 C 180.450 46, 180 47.827, 180 50.060 L 180 54.121 176.250 53.810 C 173.091 53.549, 172.513 53.145, 172.579 51.250 C 172.686 48.223, 171.370 48.388, 170.589 51.500 C 170.075 53.550, 169.353 54, 166.579 54 C 163.719 54, 163.034 53.536, 162.150 51 C 161.575 49.350, 160.644 48, 160.082 48 C 159.520 48, 158.062 49.350, 156.842 51 C 155.191 53.233, 153.815 54, 151.464 54 L 148.304 54 147.402 45.250 C 146.871 40.101, 146.209 37.207, 145.793 38.219 M 262.832 38 C 262.266 39.488, 262.655 47.533, 263.591 53.716 L 264.078 56.933 274.277 56.716 C 285.407 56.480, 285.997 56.107, 284.520 50.223 C 284.022 48.241, 283.653 47.943, 283.001 48.998 C 282.503 49.804, 282.560 51.179, 283.138 52.257 C 284.049 53.959, 283.763 54.095, 279.858 53.811 C 276.256 53.549, 275.478 53.105, 274.933 51 L 274.287 48.500 273.535 51.250 C 272.879 53.650, 272.288 54, 268.892 54 L 265 54 264.942 49.250 C 264.867 42.999, 263.566 36.069, 262.832 38 M 322.985 38.500 C 322.491 40.799, 323.266 52.529, 324.037 54.435 C 325.140 57.159, 325.105 43.449, 324 40 C 323.560 38.625, 323.103 37.950, 322.985 38.500 M 45 44.641 C 39.775 47.692, 35.312 50.370, 35.083 50.594 C 34.854 50.817, 44.304 50.996, 56.083 50.990 L 77.500 50.980 67.289 44.990 C 61.673 41.696, 56.498 39.021, 55.789 39.047 C 55.080 39.073, 50.225 41.590, 45 44.641 M 205.189 40.742 C 205.373 41.701, 206.787 43.090, 208.330 43.829 C 209.873 44.569, 212.003 46.597, 213.064 48.337 C 215.114 51.699, 215.770 50.367, 213.878 46.684 C 210.990 41.063, 204.380 36.543, 205.189 40.742 M 169.037 42.402 C 167.638 46.083, 167.590 46, 171.083 46 C 173.116 46, 174.018 45.574, 173.730 44.750 C 173.489 44.063, 172.439 43.631, 171.396 43.792 C 169.831 44.033, 169.760 43.909, 170.992 43.083 C 172.155 42.303, 172.218 41.818, 171.279 40.879 C 170.339 39.939, 169.846 40.275, 169.037 42.402 M 177.405 41.153 C 177.117 41.619, 177.359 42.050, 177.941 42.111 C 181.845 42.521, 183.400 42.300, 183.738 41.287 C 184.185 39.946, 178.230 39.820, 177.405 41.153 M 254.565 40.895 C 254.260 41.388, 254.669 42.043, 255.474 42.352 C 257.036 42.951, 258.371 41.704, 257.306 40.639 C 256.402 39.735, 255.213 39.846, 254.565 40.895 M 344.380 43.452 C 344.074 44.251, 344.097 45.348, 344.432 45.891 C 344.768 46.433, 344.245 47.341, 343.271 47.908 C 340.952 49.258, 342.555 49.309, 345.066 47.965 C 347.108 46.872, 347.742 44, 345.941 44 C 345.359 44, 345.160 43.550, 345.500 43 C 345.840 42.450, 345.852 42, 345.528 42 C 345.203 42, 344.686 42.653, 344.380 43.452 M 271 44.657 C 271 45.349, 272.094 45.796, 273.519 45.687 C 274.904 45.580, 275.917 45.074, 275.769 44.562 C 275.364 43.161, 271 43.248, 271 44.657 M 360.500 44 C 360.101 44.646, 360.224 45.624, 360.774 46.174 C 361.441 46.841, 362.016 46.783, 362.500 46 C 362.899 45.354, 362.776 44.376, 362.226 43.826 C 361.559 43.159, 360.984 43.217, 360.500 44 M 255.745 46.223 C 255.437 47.025, 255.587 48.316, 256.077 49.091 C 258.121 52.318, 257.129 53.876, 252.828 54.193 C 250.533 54.362, 248.470 55.063, 248.244 55.750 C 248.018 56.438, 248.433 57.007, 249.167 57.015 C 249.900 57.024, 251.175 57.474, 252 58.015 C 253.333 58.891, 253.333 59.109, 252 59.985 C 249.655 61.524, 242.414 61.203, 240.998 59.498 C 240.241 58.585, 239.987 56.720, 240.353 54.748 L 240.955 51.500 239.513 54 C 236.359 59.467, 238.622 64, 244.506 64 C 249.397 64, 252.864 62.393, 254.173 59.520 C 254.804 58.134, 255.876 57, 256.554 57 C 259.138 57, 259.781 51.036, 257.617 47.133 C 256.618 45.332, 256.170 45.114, 255.745 46.223 M 138.720 49.287 C 138.390 50.149, 138.767 51.392, 139.559 52.049 C 140.352 52.707, 141 54.057, 141 55.050 C 141 57.479, 136.351 60.996, 133.115 61.015 C 131.059 61.027, 130.821 61.238, 132 62 C 138.403 66.138, 145.417 56.055, 140.661 49.551 C 139.490 47.950, 139.246 47.917, 138.720 49.287 M 290.795 49.081 C 290.529 49.861, 290.948 51.482, 291.726 52.683 C 294.234 56.549, 290.290 60.983, 284.316 61.015 C 282.130 61.027, 281.836 61.248, 283 62 C 287.741 65.064, 294 60.828, 294 54.556 C 294 50.867, 291.591 46.750, 290.795 49.081 M 158 51.800 C 158 52.789, 160.146 55, 161.106 55 C 161.495 55, 161.577 54.100, 161.290 53 C 160.795 51.110, 158 50.090, 158 51.800 M 299.496 52.007 C 299.153 52.561, 299.596 53.292, 300.480 53.631 C 302.394 54.365, 303.461 53.556, 302.541 52.067 C 301.711 50.723, 300.306 50.696, 299.496 52.007 M 42.250 53.748 C 49.813 53.917, 62.188 53.917, 69.750 53.748 C 77.313 53.578, 71.125 53.439, 56 53.439 C 40.875 53.439, 34.688 53.578, 42.250 53.748 M 33 64.500 L 33 73 56 73 L 79 73 79 64.500 L 79 56 56 56 L 33 56 33 64.500 M 38 64.552 L 38 71.105 43.250 70.802 C 48.147 70.520, 48.521 70.315, 48.816 67.750 C 49.014 66.031, 48.658 65, 47.866 65 C 46.881 65, 46.867 64.733, 47.800 63.800 C 49.494 62.106, 49.290 59.325, 47.418 58.607 C 46.548 58.273, 44.073 58, 41.918 58 L 38 58 38 64.552 M 52 64.434 C 52 69.604, 52.319 71, 53.500 71 C 54.586 71, 55.021 69.827, 55.077 66.750 L 55.154 62.500 56.357 66.492 C 58.121 72.346, 60.550 72.275, 62.381 66.314 L 63.861 61.500 63.930 66.250 C 63.982 69.775, 64.387 71, 65.500 71 C 66.681 71, 67 69.604, 67 64.434 C 67 57.908, 66.983 57.869, 64.334 58.184 C 62.182 58.439, 61.447 59.271, 60.522 62.500 L 59.376 66.500 58.406 62.500 C 57.602 59.187, 56.969 58.446, 54.718 58.184 C 52.005 57.868, 52 57.878, 52 64.434 M 70 64.500 C 70 70.333, 70.205 71, 72 71 C 73.795 71, 74 70.333, 74 64.500 C 74 58.667, 73.795 58, 72 58 C 70.205 58, 70 58.667, 70 64.500 M 206.553 60.250 C 206.341 60.938, 206.205 62.244, 206.251 63.153 C 206.321 64.555, 206.719 64.631, 208.885 63.653 C 211.376 62.527, 211.384 62.492, 209.218 62.180 C 206.570 61.799, 206.294 60.331, 208.750 59.689 C 210.390 59.261, 210.388 59.225, 208.719 59.116 C 207.739 59.052, 206.764 59.563, 206.553 60.250 M 370.543 59.931 C 369.803 61.128, 371.684 62.313, 373.016 61.490 C 374.135 60.799, 373.400 59, 372 59 C 371.515 59, 370.859 59.419, 370.543 59.931 M 42 61.500 C 42 62.530, 42.655 63.020, 43.750 62.810 C 45.858 62.404, 45.725 60.629, 43.553 60.177 C 42.647 59.988, 42 60.539, 42 61.500 M 279.500 64.834 C 278.246 66.087, 279.252 66.859, 282.036 66.780 C 284.697 66.704, 287.450 65.137, 285.309 64.917 C 284.864 64.871, 283.487 64.721, 282.250 64.584 C 281.012 64.446, 279.774 64.559, 279.500 64.834 M 42 67 C 42 68.506, 42.522 69.046, 43.750 68.810 C 44.712 68.624, 45.500 67.810, 45.500 67 C 45.500 66.190, 44.712 65.376, 43.750 65.190 C 42.522 64.954, 42 65.494, 42 67 M 243.505 65.992 C 243.209 66.471, 243.312 67.067, 243.734 67.319 C 245.064 68.112, 249.015 67.542, 249.263 66.521 C 249.560 65.296, 244.237 64.807, 243.505 65.992 M 42.250 75.748 C 49.813 75.917, 62.188 75.917, 69.750 75.748 C 77.313 75.578, 71.125 75.439, 56 75.439 C 40.875 75.439, 34.688 75.578, 42.250 75.748 M 131 82.437 L 131 90 133.965 90 C 137.154 90, 139.698 86.938, 138.337 84.737 C 137.922 84.065, 137.564 81.712, 137.541 79.508 C 137.502 75.727, 137.316 75.482, 134.250 75.187 L 131 74.873 131 82.437 M 181 82.500 C 181 88.500, 181.300 90, 182.500 90 C 183.509 90, 184.026 88.937, 184.079 86.750 C 184.122 84.963, 184.385 84.063, 184.662 84.750 C 185.389 86.550, 186.778 86.288, 187.311 84.250 C 187.562 83.287, 187.820 84.188, 187.884 86.250 C 187.948 88.313, 188.450 90, 189 90 C 189.578 90, 190 86.833, 190 82.500 C 190 74.666, 188.803 72.858, 186.856 77.750 L 185.762 80.500 184.797 77.750 C 184.267 76.237, 183.196 75, 182.417 75 C 181.320 75, 181 76.696, 181 82.500 M 211 76 C 211 76.550, 211.675 77, 212.500 77 C 213.325 77, 214 76.550, 214 76 C 214 75.450, 213.325 75, 212.500 75 C 211.675 75, 211 75.450, 211 76 M 215.369 76.698 C 215.052 77.907, 214.243 78.647, 213.533 78.374 C 212.038 77.801, 211.033 80.944, 211.014 86.250 C 211.004 88.923, 211.431 90, 212.500 90 C 213.623 90, 214.039 88.680, 214.157 84.750 L 214.314 79.500 214.907 84.491 C 215.300 87.796, 216.007 89.579, 217 89.767 C 218.220 89.998, 218.477 88.820, 218.375 83.451 C 218.246 76.609, 216.448 72.571, 215.369 76.698 M 234 76 C 234 76.550, 234.450 77, 235 77 C 235.550 77, 236 76.550, 236 76 C 236 75.450, 235.550 75, 235 75 C 234.450 75, 234 75.450, 234 76 M 276 76.500 C 276 77.325, 275.334 78, 274.519 78 C 272.738 78, 271.734 81.479, 272.176 86.112 C 272.449 88.968, 272.932 89.550, 275.250 89.816 L 278 90.133 278 82.566 C 278 78.189, 277.579 75, 277 75 C 276.450 75, 276 75.675, 276 76.500 M 292 82.500 C 292 86.833, 292.422 90, 293 90 C 293.578 90, 294 86.833, 294 82.500 C 294 78.167, 293.578 75, 293 75 C 292.422 75, 292 78.167, 292 82.500 M 296.218 77.966 C 296.264 79.597, 296.684 80.695, 297.151 80.407 C 298.306 79.693, 298.233 75, 297.067 75 C 296.554 75, 296.172 76.335, 296.218 77.966 M 300 82.500 C 300 86.833, 300.422 90, 301 90 C 301.578 90, 302 86.833, 302 82.500 C 302 78.167, 301.578 75, 301 75 C 300.422 75, 300 78.167, 300 82.500 M 332.207 76.664 C 330.900 79.175, 331.910 90, 333.450 90 C 334.293 90, 334.592 87.891, 334.448 82.955 C 334.225 75.317, 333.690 73.814, 332.207 76.664 M 336 76 C 336 76.550, 336.450 77, 337 77 C 337.550 77, 338 76.550, 338 76 C 338 75.450, 337.550 75, 337 75 C 336.450 75, 336 75.450, 336 76 M 35 78.418 C 35 78.648, 39.713 81.541, 45.474 84.846 L 55.947 90.856 66.048 85.020 C 71.604 81.810, 76.416 78.918, 76.741 78.592 C 77.067 78.266, 67.808 78, 56.167 78 C 44.525 78, 35 78.188, 35 78.418 M 133.150 78.950 C 133.580 80.239, 134.951 80.471, 135.075 79.275 C 135.116 78.876, 134.610 78.370, 133.950 78.150 C 133.290 77.930, 132.930 78.290, 133.150 78.950 M 140 79.469 C 140 80.363, 140.586 80.712, 141.500 80.362 C 142.325 80.045, 143 80.236, 143 80.786 C 143 81.336, 142.325 82.045, 141.500 82.362 C 140.559 82.723, 140 84.252, 140 86.469 C 140 89.726, 140.233 90, 143 90 C 145.881 90, 146 89.824, 146 85.582 C 146 83.152, 145.727 80.452, 145.393 79.582 C 144.618 77.562, 140 77.465, 140 79.469 M 147 83.934 C 147 87.311, 147.443 90, 148 90 C 148.550 90, 149 87.975, 149 85.500 C 149 83.025, 149.450 81, 150 81 C 150.550 81, 151 83.025, 151 85.500 C 151 87.976, 151.472 90, 152.050 90 C 152.696 90, 152.985 87.789, 152.800 84.250 C 152.516 78.807, 152.353 78.483, 149.750 78.184 C 147.017 77.869, 147 77.906, 147 83.934 M 154.667 78.667 C 154.300 79.033, 154 81.550, 154 84.260 C 154 88.346, 154.341 89.277, 156 89.710 C 157.100 89.998, 158 90.856, 158 91.617 C 158 92.377, 158.450 93, 159 93 C 159.578 93, 160 89.833, 160 85.500 C 160 78.310, 159.904 78, 157.667 78 C 156.383 78, 155.033 78.300, 154.667 78.667 M 162 84 L 162 90 165 90 L 168 90 168 84 C 168 79.434, 167.654 78, 166.555 78 C 165.550 78, 164.995 79.447, 164.735 82.750 L 164.360 87.500 164.180 82.750 C 163.917 75.815, 162 76.914, 162 84 M 169.432 79.315 C 169.125 80.116, 169.015 82.735, 169.187 85.136 C 169.469 89.062, 169.776 89.532, 172.250 89.816 C 174.242 90.046, 175 89.689, 175 88.523 C 175 87.575, 174.322 87.033, 173.354 87.206 C 172.448 87.368, 171.511 86.938, 171.270 86.250 C 171.009 85.502, 171.696 85, 172.980 85 C 174.800 85, 175.079 84.505, 174.813 81.750 C 174.573 79.257, 173.975 78.425, 172.246 78.180 C 170.954 77.997, 169.752 78.482, 169.432 79.315 M 192 79.469 C 192 80.363, 192.586 80.712, 193.500 80.362 C 194.325 80.045, 195 80.284, 195 80.893 C 195 81.502, 194.535 82, 193.968 82 C 192.575 82, 191.183 85.985, 191.780 88.267 C 192.118 89.559, 193.015 90.017, 194.790 89.804 C 197.375 89.493, 197.549 88.710, 197.077 79.500 C 196.974 77.496, 192 77.465, 192 79.469 M 199 84 L 199 90 202 90 L 205 90 205 84 C 205 80.667, 204.556 78, 204 78 C 203.450 78, 203 80.025, 203 82.500 C 203 84.975, 202.550 87, 202 87 C 201.450 87, 201 84.975, 201 82.500 C 201 80.025, 200.550 78, 200 78 C 199.444 78, 199 80.667, 199 84 M 206 84 C 206 87.333, 206.444 90, 207 90 C 207.550 90, 208 88.186, 208 85.969 C 208 83.308, 208.510 81.742, 209.500 81.362 C 211.964 80.416, 211.246 78, 208.500 78 C 206.111 78, 206 78.267, 206 84 M 220 79.399 C 220 80.355, 220.567 80.720, 221.500 80.362 C 222.325 80.045, 223 80.284, 223 80.893 C 223 81.502, 222.566 82, 222.035 82 C 220.475 82, 219.056 85.499, 219.668 87.838 C 220.052 89.307, 221.014 90, 222.667 90 C 224.997 90, 225.087 89.757, 224.800 84.250 C 224.534 79.156, 224.243 78.464, 222.250 78.180 C 220.753 77.968, 220 78.376, 220 79.399 M 227 83.934 C 227 87.311, 227.443 90, 228 90 C 228.550 90, 229 87.975, 229 85.500 C 229 83.025, 229.450 81, 230 81 C 230.550 81, 231 83.025, 231 85.500 C 231 87.976, 231.472 90, 232.050 90 C 232.696 90, 232.985 87.789, 232.800 84.250 C 232.516 78.807, 232.353 78.483, 229.750 78.184 C 227.017 77.869, 227 77.906, 227 83.934 M 234 84 C 234 87.333, 234.444 90, 235 90 C 235.556 90, 236 87.333, 236 84 C 236 80.667, 235.556 78, 235 78 C 234.444 78, 234 80.667, 234 84 M 238.406 79.386 C 238.113 80.148, 238.015 82.735, 238.187 85.136 C 238.469 89.062, 238.776 89.532, 241.250 89.816 C 243.242 90.046, 244 89.689, 244 88.523 C 244 87.575, 243.322 87.033, 242.354 87.206 C 241.448 87.368, 240.511 86.938, 240.270 86.250 C 240.012 85.510, 240.684 85, 241.917 85 C 244.048 85, 244.639 82.829, 243.393 79.582 C 242.645 77.632, 239.131 77.494, 238.406 79.386 M 245 83.934 C 245 87.311, 245.443 90, 246 90 C 246.550 90, 247 87.975, 247 85.500 C 247 83.025, 247.450 81, 248 81 C 248.550 81, 249 83.025, 249 85.500 C 249 87.976, 249.472 90, 250.050 90 C 250.696 90, 250.985 87.789, 250.800 84.250 C 250.516 78.807, 250.353 78.483, 247.750 78.184 C 245.017 77.869, 245 77.906, 245 83.934 M 252 84 C 252 88.566, 252.346 90, 253.445 90 C 254.450 90, 255.005 88.553, 255.265 85.250 L 255.640 80.500 255.820 85.250 C 256.083 92.185, 258 91.086, 258 84 L 258 78 255 78 L 252 78 252 84 M 260.406 79.386 C 260.113 80.148, 260.015 82.735, 260.187 85.136 C 260.469 89.062, 260.776 89.532, 263.250 89.816 C 265.242 90.046, 266 89.689, 266 88.523 C 266 87.575, 265.322 87.033, 264.354 87.206 C 263.448 87.368, 262.511 86.938, 262.270 86.250 C 262.012 85.510, 262.684 85, 263.917 85 C 266.048 85, 266.639 82.829, 265.393 79.582 C 264.645 77.632, 261.131 77.494, 260.406 79.386 M 280.406 79.386 C 280.113 80.148, 280.015 82.735, 280.187 85.136 C 280.469 89.062, 280.776 89.532, 283.250 89.816 C 285.242 90.046, 286 89.689, 286 88.523 C 286 87.575, 285.322 87.033, 284.354 87.206 C 283.448 87.368, 282.511 86.938, 282.270 86.250 C 282.012 85.510, 282.684 85, 283.917 85 C 286.048 85, 286.639 82.829, 285.393 79.582 C 284.645 77.632, 281.131 77.494, 280.406 79.386 M 303 84 C 303 88.566, 303.346 90, 304.445 90 C 305.450 90, 306.005 88.553, 306.265 85.250 L 306.640 80.500 306.820 85.250 C 307.083 92.185, 309 91.086, 309 84 L 309 78 306 78 L 303 78 303 84 M 310.260 79.236 C 310.579 80.065, 311.151 82.827, 311.533 85.372 C 312.498 91.806, 314.575 91.365, 316.016 84.421 C 317.181 78.809, 316.689 76.296, 314.961 79.029 C 314.449 79.838, 313.970 81.400, 313.897 82.500 C 313.810 83.809, 313.545 83.493, 313.132 81.582 C 312.784 79.978, 311.866 78.454, 311.091 78.196 C 310.159 77.886, 309.877 78.238, 310.260 79.236 M 318.406 79.386 C 318.113 80.148, 318.015 82.735, 318.187 85.136 C 318.469 89.062, 318.776 89.532, 321.250 89.816 C 323.242 90.046, 324 89.689, 324 88.523 C 324 87.575, 323.322 87.033, 322.354 87.206 C 321.448 87.368, 320.511 86.938, 320.270 86.250 C 320.012 85.510, 320.684 85, 321.917 85 C 324.048 85, 324.639 82.829, 323.393 79.582 C 322.645 77.632, 319.131 77.494, 318.406 79.386 M 325.337 79.564 C 325.007 80.424, 325.344 82.336, 326.086 83.814 C 326.829 85.291, 327.624 86.909, 327.854 87.409 C 328.085 87.909, 327.536 88.036, 326.636 87.691 C 325.558 87.277, 325 87.588, 325 88.601 C 325 89.624, 325.753 90.032, 327.250 89.820 C 330.131 89.410, 330.792 85.532, 328.425 82.918 C 326.861 81.189, 327.122 80.546, 329.250 80.882 C 329.663 80.947, 330 80.325, 330 79.500 C 330 77.506, 326.106 77.560, 325.337 79.564 M 336 84 C 336 87.333, 336.444 90, 337 90 C 337.556 90, 338 87.333, 338 84 C 338 80.667, 337.556 78, 337 78 C 336.444 78, 336 80.667, 336 84 M 339.605 79.588 C 339.244 80.528, 339.716 82.444, 340.664 83.891 C 342.501 86.694, 342.576 87.500, 341 87.500 C 340.450 87.500, 340 87.950, 340 88.500 C 340 89.050, 341.012 89.500, 342.250 89.500 C 345.026 89.500, 345.929 85.016, 343.551 83.042 C 341.511 81.349, 341.564 79.895, 343.636 80.691 C 344.761 81.122, 345.127 80.878, 344.808 79.909 C 344.120 77.823, 340.371 77.592, 339.605 79.588 M 346.667 78.667 C 345.466 79.868, 345.968 83.728, 347.489 84.991 C 349.045 86.282, 348.552 88.459, 346.931 87.457 C 346.419 87.141, 346 87.615, 346 88.511 C 346 89.627, 346.707 90.039, 348.250 89.820 C 351.131 89.410, 351.792 85.532, 349.425 82.918 C 347.840 81.166, 347.833 81, 349.345 81 C 350.255 81, 351 80.325, 351 79.500 C 351 78, 347.925 77.409, 346.667 78.667 M 353.035 79.934 C 350.812 84.087, 352.575 90, 356.035 90 C 357.116 90, 358 89.325, 358 88.500 C 358 87.675, 357.494 87.112, 356.875 87.250 C 356.256 87.388, 355.544 86.938, 355.292 86.250 C 355.040 85.563, 355.519 85, 356.358 85 C 358.583 85, 359.146 83.515, 358.032 80.584 C 356.870 77.529, 354.488 77.219, 353.035 79.934 M 360 84.007 C 360 87.336, 360.445 90, 361 90 C 361.550 90, 362 87.948, 362 85.441 C 362 82.656, 362.389 81.122, 363 81.500 C 363.550 81.840, 364 83.891, 364 86.059 C 364 91.622, 365.814 90.974, 366.265 85.250 L 366.640 80.500 366.820 85.250 C 366.952 88.725, 367.402 90, 368.500 90 C 369.625 90, 369.996 88.812, 369.985 85.250 C 369.965 79.096, 369.356 78.344, 364.250 78.164 L 360 78.014 360 84.007 M 371.432 79.315 C 371.125 80.116, 371.015 82.735, 371.187 85.136 C 371.469 89.062, 371.776 89.532, 374.250 89.816 C 376.242 90.046, 377 89.689, 377 88.523 C 377 87.575, 376.322 87.033, 375.354 87.206 C 374.448 87.368, 373.511 86.938, 373.270 86.250 C 373.009 85.502, 373.696 85, 374.980 85 C 376.800 85, 377.079 84.505, 376.813 81.750 C 376.573 79.257, 375.975 78.425, 374.246 78.180 C 372.954 77.997, 371.752 78.482, 371.432 79.315 M 378 84 C 378 87.333, 378.444 90, 379 90 C 379.550 90, 380 88.227, 380 86.059 C 380 83.891, 380.450 81.840, 381 81.500 C 381.611 81.122, 382 82.656, 382 85.441 C 382 87.948, 382.450 90, 383 90 C 383.556 90, 384 87.333, 384 84 L 384 78 381 78 L 378 78 378 84 M 156.667 81.667 C 155.620 82.714, 155.888 87, 157 87 C 157.550 87, 158 85.650, 158 84 C 158 80.893, 157.796 80.537, 156.667 81.667 M 274.667 81.667 C 273.620 82.714, 273.888 87, 275 87 C 275.550 87, 276 85.650, 276 84 C 276 80.893, 275.796 80.537, 274.667 81.667 M 133.639 83.694 C 132.444 84.889, 132.994 87, 134.500 87 C 135.325 87, 136 86.352, 136 85.559 C 136 83.888, 134.573 82.761, 133.639 83.694 M 1 113.500 L 1 129 28.223 129 C 51.388 129, 55.151 128.799, 53.473 127.650 C 50.103 125.343, 2.292 98, 1.628 98 C 1.283 98, 1 104.975, 1 113.500" stroke="none" fill="#ffffff" fill-rule="evenodd"/><path d="M 44.250 6.637 L 33 13.169 33 23.085 C 33 28.538, 33.260 33, 33.578 33 C 33.895 33, 38.774 30.300, 44.420 27 C 50.066 23.700, 55.216 21, 55.865 21 C 56.514 21, 65.360 25.761, 75.522 31.579 L 94 42.159 94 64.433 L 94 86.708 75.452 97.354 C 65.251 103.209, 56.469 108, 55.935 108 C 55.402 108, 46.760 103.267, 36.733 97.482 L 18.500 86.965 18 54.539 L 17.500 22.112 8.750 27.137 L 0 32.161 0 64.439 L 0 96.716 27.963 112.819 L 55.926 128.922 83.963 112.809 L 112 96.695 112 64.443 L 112 32.192 84.043 16.096 C 68.667 7.243, 55.955 0.023, 55.793 0.052 C 55.632 0.081, 50.438 3.044, 44.250 6.637 M 226.656 37.455 C 226.330 38.305, 226.238 39.563, 226.453 40.250 C 226.668 40.938, 227.126 44.313, 227.471 47.750 L 228.099 54 224.550 54 C 221.213 54, 220.999 53.805, 220.991 50.750 C 220.974 44.240, 219.722 36.832, 218.868 38.180 C 218.407 38.906, 218.024 40.985, 218.015 42.800 C 217.989 48.483, 214.701 53.190, 208.498 56.425 C 205.866 57.797, 205.769 57.988, 207.703 57.994 C 211.672 58.005, 214.901 55.778, 216.967 51.604 L 218.998 47.500 219.015 51 C 219.038 56.084, 220.098 57.188, 224.602 56.819 L 228.500 56.500 229.033 48 C 229.384 42.395, 229.171 38.889, 228.407 37.705 C 227.404 36.151, 227.169 36.117, 226.656 37.455 M 311.300 37.100 C 310.618 37.782, 310.585 39.606, 311.203 42.504 C 311.716 44.909, 311.993 48.368, 311.818 50.189 C 311.543 53.054, 311.094 53.540, 308.486 53.796 C 305.928 54.047, 305.300 53.632, 304.323 51.046 C 302.940 47.380, 300.370 47.094, 298.847 50.436 C 297.477 53.442, 298.364 56.021, 301.005 56.712 C 303.851 57.456, 303.480 58.733, 299.750 61.037 C 297.639 62.340, 295.625 62.832, 294.002 62.441 C 290.514 61.598, 292.049 62.867, 295.830 63.951 C 298.302 64.660, 299.436 64.445, 301.407 62.894 C 302.768 61.824, 304.146 60.115, 304.469 59.097 C 305.292 56.505, 312.457 55.414, 315.512 57.416 C 316.754 58.230, 318.047 58.619, 318.385 58.281 C 319.769 56.898, 318.852 54.254, 316.640 53.246 C 314.774 52.396, 314.165 51.157, 313.735 47.341 C 313.436 44.685, 313.557 41.828, 314.004 40.992 C 315.075 38.992, 312.752 35.648, 311.300 37.100 M 380.648 36.685 C 380.279 37.055, 380.184 38.739, 380.438 40.428 C 380.693 42.118, 381.167 45.889, 381.493 48.810 L 382.085 54.119 377.792 53.810 C 374.071 53.541, 373.511 53.201, 373.579 51.250 C 373.687 48.196, 372.368 48.399, 371.575 51.558 C 371.010 53.808, 370.484 54.080, 367.216 53.808 C 364.034 53.544, 363.534 53.177, 363.738 51.250 C 363.869 50.013, 363.563 49, 363.058 49 C 362.552 49, 361.995 50.013, 361.820 51.250 C 361.578 52.953, 360.739 53.574, 358.373 53.804 L 355.246 54.108 354.521 45.410 C 354.095 40.294, 353.463 37.250, 352.988 38.020 C 352.543 38.739, 352.430 42.649, 352.737 46.707 L 353.295 54.086 344.898 53.793 C 336.974 53.517, 336.504 53.376, 336.574 51.300 C 336.615 50.090, 336.277 49.329, 335.824 49.609 C 334.587 50.374, 334.833 54.433, 336.200 55.800 C 337.714 57.314, 351.194 57.406, 352.687 55.913 C 353.470 55.130, 353.962 55.130, 354.446 55.913 C 355.305 57.303, 360.676 57.333, 361.530 55.951 C 361.956 55.263, 362.583 55.239, 363.356 55.881 C 364.004 56.418, 368.576 56.778, 373.517 56.679 L 382.500 56.500 383.033 48 C 383.534 40.001, 382.455 34.879, 380.648 36.685 M 145.793 38.219 C 145.132 39.827, 145.466 46.264, 146.599 53.750 C 147.038 56.650, 147.441 57, 150.345 57 C 152.135 57, 154.092 56.508, 154.693 55.907 C 155.484 55.116, 156.495 55.278, 158.349 56.493 C 159.759 57.417, 161.454 57.837, 162.117 57.428 C 162.780 57.018, 168.312 56.715, 174.411 56.755 C 180.510 56.795, 188.650 56.442, 192.500 55.972 C 196.769 55.450, 199.871 55.484, 200.450 56.058 C 203.265 58.849, 206.322 53.943, 204.024 50.322 C 203.051 48.790, 202.954 49.021, 203.413 51.774 C 203.921 54.815, 203.815 54.971, 201.932 53.964 C 200.471 53.182, 200.075 52.266, 200.515 50.689 L 201.125 48.500 199.313 50.605 C 195.898 54.570, 192.110 54.580, 194.174 50.619 C 195.011 49.013, 194.651 49.166, 192.687 51.250 C 190.689 53.370, 189.169 54, 186.048 54 L 182 54 182 50 C 182 47.800, 181.550 46, 181 46 C 180.450 46, 180 47.827, 180 50.060 L 180 54.121 176.250 53.810 C 173.091 53.549, 172.513 53.145, 172.579 51.250 C 172.686 48.223, 171.370 48.388, 170.589 51.500 C 170.075 53.550, 169.353 54, 166.579 54 C 163.719 54, 163.034 53.536, 162.150 51 C 161.575 49.350, 160.644 48, 160.082 48 C 159.520 48, 158.062 49.350, 156.842 51 C 155.191 53.233, 153.815 54, 151.464 54 L 148.304 54 147.402 45.250 C 146.871 40.101, 146.209 37.207, 145.793 38.219 M 262.832 38 C 262.266 39.488, 262.655 47.533, 263.591 53.716 L 264.078 56.933 274.277 56.716 C 285.407 56.480, 285.997 56.107, 284.520 50.223 C 284.022 48.241, 283.653 47.943, 283.001 48.998 C 282.503 49.804, 282.560 51.179, 283.138 52.257 C 284.049 53.959, 283.763 54.095, 279.858 53.811 C 276.256 53.549, 275.478 53.105, 274.933 51 L 274.287 48.500 273.535 51.250 C 272.879 53.650, 272.288 54, 268.892 54 L 265 54 264.942 49.250 C 264.867 42.999, 263.566 36.069, 262.832 38 M 322.985 38.500 C 322.491 40.799, 323.266 52.529, 324.037 54.435 C 325.140 57.159, 325.105 43.449, 324 40 C 323.560 38.625, 323.103 37.950, 322.985 38.500 M 388.003 38.500 C 387.489 40.705, 388.254 52.501, 389.037 54.435 C 389.606 55.839, 389.856 54.419, 389.818 50 C 389.767 43.986, 388.539 36.203, 388.003 38.500 M 45 44.641 C 39.775 47.692, 35.312 50.370, 35.083 50.594 C 34.854 50.817, 44.304 50.996, 56.083 50.990 L 77.500 50.980 67.289 44.990 C 61.673 41.696, 56.498 39.021, 55.789 39.047 C 55.080 39.073, 50.225 41.590, 45 44.641 M 205.189 40.742 C 205.373 41.701, 206.787 43.090, 208.330 43.829 C 209.873 44.569, 212.003 46.597, 213.064 48.337 C 215.114 51.699, 215.770 50.367, 213.878 46.684 C 210.990 41.063, 204.380 36.543, 205.189 40.742 M 169.037 42.402 C 167.638 46.083, 167.590 46, 171.083 46 C 173.116 46, 174.018 45.574, 173.730 44.750 C 173.489 44.063, 172.439 43.631, 171.396 43.792 C 169.831 44.033, 169.760 43.909, 170.992 43.083 C 172.155 42.303, 172.218 41.818, 171.279 40.879 C 170.339 39.939, 169.846 40.275, 169.037 42.402 M 177.405 41.153 C 177.117 41.619, 177.359 42.050, 177.941 42.111 C 181.845 42.521, 183.400 42.300, 183.738 41.287 C 184.185 39.946, 178.230 39.820, 177.405 41.153 M 254.565 40.895 C 254.260 41.388, 254.669 42.043, 255.474 42.352 C 257.036 42.951, 258.371 41.704, 257.306 40.639 C 256.402 39.735, 255.213 39.846, 254.565 40.895 M 344.380 43.452 C 344.074 44.251, 344.097 45.348, 344.432 45.891 C 344.768 46.433, 344.245 47.341, 343.271 47.908 C 340.952 49.258, 342.555 49.309, 345.066 47.965 C 347.108 46.872, 347.742 44, 345.941 44 C 345.359 44, 345.160 43.550, 345.500 43 C 345.840 42.450, 345.852 42, 345.528 42 C 345.203 42, 344.686 42.653, 344.380 43.452 M 271 44.657 C 271 45.349, 272.094 45.796, 273.519 45.687 C 274.904 45.580, 275.917 45.074, 275.769 44.562 C 275.364 43.161, 271 43.248, 271 44.657 M 360.500 44 C 360.101 44.646, 360.224 45.624, 360.774 46.174 C 361.441 46.841, 362.016 46.783, 362.500 46 C 362.899 45.354, 362.776 44.376, 362.226 43.826 C 361.559 43.159, 360.984 43.217, 360.500 44 M 255.745 46.223 C 255.437 47.025, 255.587 48.316, 256.077 49.091 C 258.121 52.318, 257.129 53.876, 252.828 54.193 C 250.533 54.362, 248.470 55.063, 248.244 55.750 C 248.018 56.438, 248.433 57.007, 249.167 57.015 C 249.900 57.024, 251.175 57.474, 252 58.015 C 253.333 58.891, 253.333 59.109, 252 59.985 C 249.655 61.524, 242.414 61.203, 240.998 59.498 C 240.241 58.585, 239.987 56.720, 240.353 54.748 L 240.955 51.500 239.513 54 C 236.359 59.467, 238.622 64, 244.506 64 C 249.397 64, 252.864 62.393, 254.173 59.520 C 254.804 58.134, 255.876 57, 256.554 57 C 259.138 57, 259.781 51.036, 257.617 47.133 C 256.618 45.332, 256.170 45.114, 255.745 46.223 M 138.720 49.287 C 138.390 50.149, 138.767 51.392, 139.559 52.049 C 140.352 52.707, 141 54.057, 141 55.050 C 141 57.479, 136.351 60.996, 133.115 61.015 C 131.059 61.027, 130.821 61.238, 132 62 C 138.403 66.138, 145.417 56.055, 140.661 49.551 C 139.490 47.950, 139.246 47.917, 138.720 49.287 M 290.795 49.081 C 290.529 49.861, 290.948 51.482, 291.726 52.683 C 294.234 56.549, 290.290 60.983, 284.316 61.015 C 282.130 61.027, 281.836 61.248, 283 62 C 287.741 65.064, 294 60.828, 294 54.556 C 294 50.867, 291.591 46.750, 290.795 49.081 M 158 51.800 C 158 52.789, 160.146 55, 161.106 55 C 161.495 55, 161.577 54.100, 161.290 53 C 160.795 51.110, 158 50.090, 158 51.800 M 299.496 52.007 C 299.153 52.561, 299.596 53.292, 300.480 53.631 C 302.394 54.365, 303.461 53.556, 302.541 52.067 C 301.711 50.723, 300.306 50.696, 299.496 52.007 M 42.250 53.748 C 49.813 53.917, 62.188 53.917, 69.750 53.748 C 77.313 53.578, 71.125 53.439, 56 53.439 C 40.875 53.439, 34.688 53.578, 42.250 53.748 M 33 64.500 L 33 73 56 73 L 79 73 79 64.500 L 79 56 56 56 L 33 56 33 64.500 M 38 64.552 L 38 71.105 43.250 70.802 C 48.147 70.520, 48.521 70.315, 48.816 67.750 C 49.014 66.031, 48.658 65, 47.866 65 C 46.881 65, 46.867 64.733, 47.800 63.800 C 49.494 62.106, 49.290 59.325, 47.418 58.607 C 46.548 58.273, 44.073 58, 41.918 58 L 38 58 38 64.552 M 52 64.434 C 52 69.604, 52.319 71, 53.500 71 C 54.586 71, 55.021 69.827, 55.077 66.750 L 55.154 62.500 56.357 66.492 C 58.121 72.346, 60.550 72.275, 62.381 66.314 L 63.861 61.500 63.930 66.250 C 63.982 69.775, 64.387 71, 65.500 71 C 66.681 71, 67 69.604, 67 64.434 C 67 57.908, 66.983 57.869, 64.334 58.184 C 62.182 58.439, 61.447 59.271, 60.522 62.500 L 59.376 66.500 58.406 62.500 C 57.602 59.187, 56.969 58.446, 54.718 58.184 C 52.005 57.868, 52 57.878, 52 64.434 M 70 64.500 C 70 70.333, 70.205 71, 72 71 C 73.795 71, 74 70.333, 74 64.500 C 74 58.667, 73.795 58, 72 58 C 70.205 58, 70 58.667, 70 64.500 M 206.553 60.250 C 206.341 60.938, 206.205 62.244, 206.251 63.153 C 206.321 64.555, 206.719 64.631, 208.885 63.653 C 211.376 62.527, 211.384 62.492, 209.218 62.180 C 206.570 61.799, 206.294 60.331, 208.750 59.689 C 210.390 59.261, 210.388 59.225, 208.719 59.116 C 207.739 59.052, 206.764 59.563, 206.553 60.250 M 370.543 59.931 C 369.803 61.128, 371.684 62.313, 373.016 61.490 C 374.135 60.799, 373.400 59, 372 59 C 371.515 59, 370.859 59.419, 370.543 59.931 M 42 61.500 C 42 62.530, 42.655 63.020, 43.750 62.810 C 45.858 62.404, 45.725 60.629, 43.553 60.177 C 42.647 59.988, 42 60.539, 42 61.500 M 279.500 64.834 C 278.246 66.087, 279.252 66.859, 282.036 66.780 C 284.697 66.704, 287.450 65.137, 285.309 64.917 C 284.864 64.871, 283.487 64.721, 282.250 64.584 C 281.012 64.446, 279.774 64.559, 279.500 64.834 M 42 67 C 42 68.506, 42.522 69.046, 43.750 68.810 C 44.712 68.624, 45.500 67.810, 45.500 67 C 45.500 66.190, 44.712 65.376, 43.750 65.190 C 42.522 64.954, 42 65.494, 42 67 M 243.505 65.992 C 243.209 66.471, 243.312 67.067, 243.734 67.319 C 245.064 68.112, 249.015 67.542, 249.263 66.521 C 249.560 65.296, 244.237 64.807, 243.505 65.992 M 42.250 75.748 C 49.813 75.917, 62.188 75.917, 69.750 75.748 C 77.313 75.578, 71.125 75.439, 56 75.439 C 40.875 75.439, 34.688 75.578, 42.250 75.748 M 131 82.437 L 131 90 133.965 90 C 137.154 90, 139.698 86.938, 138.337 84.737 C 137.922 84.065, 137.564 81.712, 137.541 79.508 C 137.502 75.727, 137.316 75.482, 134.250 75.187 L 131 74.873 131 82.437 M 181 82.500 C 181 88.500, 181.300 90, 182.500 90 C 183.509 90, 184.026 88.937, 184.079 86.750 C 184.122 84.963, 184.385 84.063, 184.662 84.750 C 185.389 86.550, 186.778 86.288, 187.311 84.250 C 187.562 83.287, 187.820 84.188, 187.884 86.250 C 187.948 88.313, 188.450 90, 189 90 C 189.578 90, 190 86.833, 190 82.500 C 190 74.666, 188.803 72.858, 186.856 77.750 L 185.762 80.500 184.797 77.750 C 184.267 76.237, 183.196 75, 182.417 75 C 181.320 75, 181 76.696, 181 82.500 M 211 76 C 211 76.550, 211.675 77, 212.500 77 C 213.325 77, 214 76.550, 214 76 C 214 75.450, 213.325 75, 212.500 75 C 211.675 75, 211 75.450, 211 76 M 215.369 76.698 C 215.052 77.907, 214.243 78.647, 213.533 78.374 C 212.038 77.801, 211.033 80.944, 211.014 86.250 C 211.004 88.923, 211.431 90, 212.500 90 C 213.623 90, 214.039 88.680, 214.157 84.750 L 214.314 79.500 214.907 84.491 C 215.300 87.796, 216.007 89.579, 217 89.767 C 218.220 89.998, 218.477 88.820, 218.375 83.451 C 218.246 76.609, 216.448 72.571, 215.369 76.698 M 234 76 C 234 76.550, 234.450 77, 235 77 C 235.550 77, 236 76.550, 236 76 C 236 75.450, 235.550 75, 235 75 C 234.450 75, 234 75.450, 234 76 M 276 76.500 C 276 77.325, 275.334 78, 274.519 78 C 272.738 78, 271.734 81.479, 272.176 86.112 C 272.449 88.968, 272.932 89.550, 275.250 89.816 L 278 90.133 278 82.566 C 278 78.189, 277.579 75, 277 75 C 276.450 75, 276 75.675, 276 76.500 M 292 82.500 C 292 86.833, 292.422 90, 293 90 C 293.578 90, 294 86.833, 294 82.500 C 294 78.167, 293.578 75, 293 75 C 292.422 75, 292 78.167, 292 82.500 M 296.218 77.966 C 296.264 79.597, 296.684 80.695, 297.151 80.407 C 298.306 79.693, 298.233 75, 297.067 75 C 296.554 75, 296.172 76.335, 296.218 77.966 M 300 82.500 C 300 86.833, 300.422 90, 301 90 C 301.578 90, 302 86.833, 302 82.500 C 302 78.167, 301.578 75, 301 75 C 300.422 75, 300 78.167, 300 82.500 M 332.207 76.664 C 330.900 79.175, 331.910 90, 333.450 90 C 334.293 90, 334.592 87.891, 334.448 82.955 C 334.225 75.317, 333.690 73.814, 332.207 76.664 M 336 76 C 336 76.550, 336.450 77, 337 77 C 337.550 77, 338 76.550, 338 76 C 338 75.450, 337.550 75, 337 75 C 336.450 75, 336 75.450, 336 76 M 386.346 76.522 C 385.813 77.610, 385.559 81.088, 385.781 84.250 C 386.122 89.099, 386.484 90, 388.093 90 C 390.188 90, 390.643 88.516, 388.882 87.427 C 388.204 87.008, 387.968 85.117, 388.283 82.618 C 388.569 80.353, 388.467 77.610, 388.058 76.522 C 387.317 74.552, 387.310 74.552, 386.346 76.522 M 35 78.418 C 35 78.648, 39.713 81.541, 45.474 84.846 L 55.947 90.856 66.048 85.020 C 71.604 81.810, 76.416 78.918, 76.741 78.592 C 77.067 78.266, 67.808 78, 56.167 78 C 44.525 78, 35 78.188, 35 78.418 M 133.150 78.950 C 133.580 80.239, 134.951 80.471, 135.075 79.275 C 135.116 78.876, 134.610 78.370, 133.950 78.150 C 133.290 77.930, 132.930 78.290, 133.150 78.950 M 140 79.469 C 140 80.363, 140.586 80.712, 141.500 80.362 C 142.325 80.045, 143 80.236, 143 80.786 C 143 81.336, 142.325 82.045, 141.500 82.362 C 140.559 82.723, 140 84.252, 140 86.469 C 140 89.726, 140.233 90, 143 90 C 145.881 90, 146 89.824, 146 85.582 C 146 83.152, 145.727 80.452, 145.393 79.582 C 144.618 77.562, 140 77.465, 140 79.469 M 147 83.934 C 147 87.311, 147.443 90, 148 90 C 148.550 90, 149 87.975, 149 85.500 C 149 83.025, 149.450 81, 150 81 C 150.550 81, 151 83.025, 151 85.500 C 151 87.976, 151.472 90, 152.050 90 C 152.696 90, 152.985 87.789, 152.800 84.250 C 152.516 78.807, 152.353 78.483, 149.750 78.184 C 147.017 77.869, 147 77.906, 147 83.934 M 154.667 78.667 C 154.300 79.033, 154 81.550, 154 84.260 C 154 88.346, 154.341 89.277, 156 89.710 C 157.100 89.998, 158 90.856, 158 91.617 C 158 92.377, 158.450 93, 159 93 C 159.578 93, 160 89.833, 160 85.500 C 160 78.310, 159.904 78, 157.667 78 C 156.383 78, 155.033 78.300, 154.667 78.667 M 162 84 L 162 90 165 90 L 168 90 168 84 C 168 79.434, 167.654 78, 166.555 78 C 165.550 78, 164.995 79.447, 164.735 82.750 L 164.360 87.500 164.180 82.750 C 163.917 75.815, 162 76.914, 162 84 M 169.432 79.315 C 169.125 80.116, 169.015 82.735, 169.187 85.136 C 169.469 89.062, 169.776 89.532, 172.250 89.816 C 174.242 90.046, 175 89.689, 175 88.523 C 175 87.575, 174.322 87.033, 173.354 87.206 C 172.448 87.368, 171.511 86.938, 171.270 86.250 C 171.009 85.502, 171.696 85, 172.980 85 C 174.800 85, 175.079 84.505, 174.813 81.750 C 174.573 79.257, 173.975 78.425, 172.246 78.180 C 170.954 77.997, 169.752 78.482, 169.432 79.315 M 192 79.469 C 192 80.363, 192.586 80.712, 193.500 80.362 C 194.325 80.045, 195 80.284, 195 80.893 C 195 81.502, 194.535 82, 193.968 82 C 192.575 82, 191.183 85.985, 191.780 88.267 C 192.118 89.559, 193.015 90.017, 194.790 89.804 C 197.375 89.493, 197.549 88.710, 197.077 79.500 C 196.974 77.496, 192 77.465, 192 79.469 M 199 84 L 199 90 202 90 L 205 90 205 84 C 205 80.667, 204.556 78, 204 78 C 203.450 78, 203 80.025, 203 82.500 C 203 84.975, 202.550 87, 202 87 C 201.450 87, 201 84.975, 201 82.500 C 201 80.025, 200.550 78, 200 78 C 199.444 78, 199 80.667, 199 84 M 206 84 C 206 87.333, 206.444 90, 207 90 C 207.550 90, 208 88.186, 208 85.969 C 208 83.308, 208.510 81.742, 209.500 81.362 C 211.964 80.416, 211.246 78, 208.500 78 C 206.111 78, 206 78.267, 206 84 M 220 79.399 C 220 80.355, 220.567 80.720, 221.500 80.362 C 222.325 80.045, 223 80.284, 223 80.893 C 223 81.502, 222.566 82, 222.035 82 C 220.475 82, 219.056 85.499, 219.668 87.838 C 220.052 89.307, 221.014 90, 222.667 90 C 224.997 90, 225.087 89.757, 224.800 84.250 C 224.534 79.156, 224.243 78.464, 222.250 78.180 C 220.753 77.968, 220 78.376, 220 79.399 M 227 83.934 C 227 87.311, 227.443 90, 228 90 C 228.550 90, 229 87.975, 229 85.500 C 229 83.025, 229.450 81, 230 81 C 230.550 81, 231 83.025, 231 85.500 C 231 87.976, 231.472 90, 232.050 90 C 232.696 90, 232.985 87.789, 232.800 84.250 C 232.516 78.807, 232.353 78.483, 229.750 78.184 C 227.017 77.869, 227 77.906, 227 83.934 M 234 84 C 234 87.333, 234.444 90, 235 90 C 235.556 90, 236 87.333, 236 84 C 236 80.667, 235.556 78, 235 78 C 234.444 78, 234 80.667, 234 84 M 238.406 79.386 C 238.113 80.148, 238.015 82.735, 238.187 85.136 C 238.469 89.062, 238.776 89.532, 241.250 89.816 C 243.242 90.046, 244 89.689, 244 88.523 C 244 87.575, 243.322 87.033, 242.354 87.206 C 241.448 87.368, 240.511 86.938, 240.270 86.250 C 240.012 85.510, 240.684 85, 241.917 85 C 244.048 85, 244.639 82.829, 243.393 79.582 C 242.645 77.632, 239.131 77.494, 238.406 79.386 M 245 83.934 C 245 87.311, 245.443 90, 246 90 C 246.550 90, 247 87.975, 247 85.500 C 247 83.025, 247.450 81, 248 81 C 248.550 81, 249 83.025, 249 85.500 C 249 87.976, 249.472 90, 250.050 90 C 250.696 90, 250.985 87.789, 250.800 84.250 C 250.516 78.807, 250.353 78.483, 247.750 78.184 C 245.017 77.869, 245 77.906, 245 83.934 M 252 84 C 252 88.566, 252.346 90, 253.445 90 C 254.450 90, 255.005 88.553, 255.265 85.250 L 255.640 80.500 255.820 85.250 C 256.083 92.185, 258 91.086, 258 84 L 258 78 255 78 L 252 78 252 84 M 260.406 79.386 C 260.113 80.148, 260.015 82.735, 260.187 85.136 C 260.469 89.062, 260.776 89.532, 263.250 89.816 C 265.242 90.046, 266 89.689, 266 88.523 C 266 87.575, 265.322 87.033, 264.354 87.206 C 263.448 87.368, 262.511 86.938, 262.270 86.250 C 262.012 85.510, 262.684 85, 263.917 85 C 266.048 85, 266.639 82.829, 265.393 79.582 C 264.645 77.632, 261.131 77.494, 260.406 79.386 M 280.406 79.386 C 280.113 80.148, 280.015 82.735, 280.187 85.136 C 280.469 89.062, 280.776 89.532, 283.250 89.816 C 285.242 90.046, 286 89.689, 286 88.523 C 286 87.575, 285.322 87.033, 284.354 87.206 C 283.448 87.368, 282.511 86.938, 282.270 86.250 C 282.012 85.510, 282.684 85, 283.917 85 C 286.048 85, 286.639 82.829, 285.393 79.582 C 284.645 77.632, 281.131 77.494, 280.406 79.386 M 303 84 C 303 88.566, 303.346 90, 304.445 90 C 305.450 90, 306.005 88.553, 306.265 85.250 L 306.640 80.500 306.820 85.250 C 307.083 92.185, 309 91.086, 309 84 L 309 78 306 78 L 303 78 303 84 M 310.260 79.236 C 310.579 80.065, 311.151 82.827, 311.533 85.372 C 312.498 91.806, 314.575 91.365, 316.016 84.421 C 317.181 78.809, 316.689 76.296, 314.961 79.029 C 314.449 79.838, 313.970 81.400, 313.897 82.500 C 313.810 83.809, 313.545 83.493, 313.132 81.582 C 312.784 79.978, 311.866 78.454, 311.091 78.196 C 310.159 77.886, 309.877 78.238, 310.260 79.236 M 318.406 79.386 C 318.113 80.148, 318.015 82.735, 318.187 85.136 C 318.469 89.062, 318.776 89.532, 321.250 89.816 C 323.242 90.046, 324 89.689, 324 88.523 C 324 87.575, 323.322 87.033, 322.354 87.206 C 321.448 87.368, 320.511 86.938, 320.270 86.250 C 320.012 85.510, 320.684 85, 321.917 85 C 324.048 85, 324.639 82.829, 323.393 79.582 C 322.645 77.632, 319.131 77.494, 318.406 79.386 M 325.337 79.564 C 325.007 80.424, 325.344 82.336, 326.086 83.814 C 326.829 85.291, 327.624 86.909, 327.854 87.409 C 328.085 87.909, 327.536 88.036, 326.636 87.691 C 325.558 87.277, 325 87.588, 325 88.601 C 325 89.624, 325.753 90.032, 327.250 89.820 C 330.131 89.410, 330.792 85.532, 328.425 82.918 C 326.861 81.189, 327.122 80.546, 329.250 80.882 C 329.663 80.947, 330 80.325, 330 79.500 C 330 77.506, 326.106 77.560, 325.337 79.564 M 336 84 C 336 87.333, 336.444 90, 337 90 C 337.556 90, 338 87.333, 338 84 C 338 80.667, 337.556 78, 337 78 C 336.444 78, 336 80.667, 336 84 M 339.605 79.588 C 339.244 80.528, 339.716 82.444, 340.664 83.891 C 342.501 86.694, 342.576 87.500, 341 87.500 C 340.450 87.500, 340 87.950, 340 88.500 C 340 89.050, 341.012 89.500, 342.250 89.500 C 345.026 89.500, 345.929 85.016, 343.551 83.042 C 341.511 81.349, 341.564 79.895, 343.636 80.691 C 344.761 81.122, 345.127 80.878, 344.808 79.909 C 344.120 77.823, 340.371 77.592, 339.605 79.588 M 346.667 78.667 C 345.466 79.868, 345.968 83.728, 347.489 84.991 C 349.045 86.282, 348.552 88.459, 346.931 87.457 C 346.419 87.141, 346 87.615, 346 88.511 C 346 89.627, 346.707 90.039, 348.250 89.820 C 351.131 89.410, 351.792 85.532, 349.425 82.918 C 347.840 81.166, 347.833 81, 349.345 81 C 350.255 81, 351 80.325, 351 79.500 C 351 78, 347.925 77.409, 346.667 78.667 M 353.035 79.934 C 350.812 84.087, 352.575 90, 356.035 90 C 357.116 90, 358 89.325, 358 88.500 C 358 87.675, 357.494 87.112, 356.875 87.250 C 356.256 87.388, 355.544 86.938, 355.292 86.250 C 355.040 85.563, 355.519 85, 356.358 85 C 358.583 85, 359.146 83.515, 358.032 80.584 C 356.870 77.529, 354.488 77.219, 353.035 79.934 M 360 84.007 C 360 87.336, 360.445 90, 361 90 C 361.550 90, 362 87.948, 362 85.441 C 362 82.656, 362.389 81.122, 363 81.500 C 363.550 81.840, 364 83.891, 364 86.059 C 364 91.622, 365.814 90.974, 366.265 85.250 L 366.640 80.500 366.820 85.250 C 366.952 88.725, 367.402 90, 368.500 90 C 369.625 90, 369.996 88.812, 369.985 85.250 C 369.965 79.096, 369.356 78.344, 364.250 78.164 L 360 78.014 360 84.007 M 371.432 79.315 C 371.125 80.116, 371.015 82.735, 371.187 85.136 C 371.469 89.062, 371.776 89.532, 374.250 89.816 C 376.242 90.046, 377 89.689, 377 88.523 C 377 87.575, 376.322 87.033, 375.354 87.206 C 374.448 87.368, 373.511 86.938, 373.270 86.250 C 373.009 85.502, 373.696 85, 374.980 85 C 376.800 85, 377.079 84.505, 376.813 81.750 C 376.573 79.257, 375.975 78.425, 374.246 78.180 C 372.954 77.997, 371.752 78.482, 371.432 79.315 M 378 84 C 378 87.333, 378.444 90, 379 90 C 379.550 90, 380 88.227, 380 86.059 C 380 83.891, 380.450 81.840, 381 81.500 C 381.611 81.122, 382 82.656, 382 85.441 C 382 87.948, 382.450 90, 383 90 C 383.556 90, 384 87.333, 384 84 L 384 78 381 78 L 378 78 378 84 M 156.667 81.667 C 155.620 82.714, 155.888 87, 157 87 C 157.550 87, 158 85.650, 158 84 C 158 80.893, 157.796 80.537, 156.667 81.667 M 274.667 81.667 C 273.620 82.714, 273.888 87, 275 87 C 275.550 87, 276 85.650, 276 84 C 276 80.893, 275.796 80.537, 274.667 81.667 M 133.639 83.694 C 132.444 84.889, 132.994 87, 134.500 87 C 135.325 87, 136 86.352, 136 85.559 C 136 83.888, 134.573 82.761, 133.639 83.694" stroke="none" fill="#267e46" fill-rule="evenodd"/></svg>