<?xml version="1.0" encoding="utf-8"?>
<!-- Generator: Adobe Illustrator 26.0.1, SVG Export Plug-In . SVG Version: 6.00 Build 0)  -->
<svg version="1.1" id="Layer_1" xmlns="http://www.w3.org/2000/svg" xmlns:xlink="http://www.w3.org/1999/xlink" x="0px" y="0px"
	 viewBox="0 0 150 100" style="enable-background:new 0 0 150 100;" xml:space="preserve">
<style type="text/css">
	.st0{fill:#009542;}
	.st1{fill:#5A5959;}
	.st2{fill:#585658;}
	.st3{fill:#086738;}
	.st4{fill:#595656;}
	.st5{fill:#A7BB44;}
	.st6{fill:#ACBB5B;}
	.st7{fill:#F5F0DA;}
	.st8{fill:#E5EFD7;}
	.st9{fill:#F4F5D8;}
	.st10{fill:#ADBD68;}
	.st11{fill:#3A5F42;}
	.st12{fill:#BCC984;}
	.st13{fill:#D6E0B2;}
	.st14{fill:#585858;}
	.st15{fill:#575757;}
	.st16{fill:#585657;}
	.st17{fill:#5A5758;}
	.st18{fill:#585758;}
	.st19{fill:#575657;}
	.st20{fill:#595757;}
	.st21{fill:#5A5757;}
	.st22{fill:#5A5A5A;}
	.st23{fill:#5B5A5A;}
	.st24{fill:#5E5F5F;}
	.st25{fill:#5D5D5D;}
	.st26{fill:#605F5F;}
	.st27{fill:#F8F9F3;}
	.st28{fill:#F7F8F3;}
	.st29{fill:#F7F7F3;}
	.st30{fill:#A7BB56;}
	.st31{fill:#0B673C;}
	.st32{fill:#0D673E;}
</style>
<path class="st0" d="M25.53,31.56c1.71,1.11,3.51,2.06,5.28,3.07c4.77,2.73,9.54,5.44,14.32,8.15c0.47,0.27,0.64,0.57,0.64,1.13
	c-0.02,7.29-0.01,14.58,0.01,21.87c0,0.46-0.14,0.74-0.55,0.97c-5.54,3.14-11.06,6.29-16.59,9.43c-1.09,0.62-2.17,1.25-3.25,1.88
	c-0.09,0-0.18,0-0.28,0c-1.17-0.48-2.22-1.19-3.31-1.81c-4.5-2.56-9.01-5.11-13.5-7.7c-0.87-0.5-1.73-1.03-2.64-1.47
	c-0.29-0.14-0.56-0.31-0.72-0.61c0-7.82,0-15.64,0-23.45c0.59-0.57,1.35-0.86,2.04-1.26c1.07-0.63,2.15-1.24,3.23-1.84
	c1.16-0.65,1.42-0.51,1.42,0.84c0,3.97,0,7.95,0,11.92c0,3.02,0.01,6.04-0.01,9.06c-0.01,0.64,0.21,1.03,0.79,1.36
	c3.99,2.26,7.98,4.53,11.95,6.82c0.69,0.4,1.24,0.44,1.96,0.01c3.94-2.35,7.98-4.54,11.94-6.84c0.57-0.33,0.78-0.72,0.78-1.37
	c-0.02-4.63-0.02-9.27,0-13.9c0-0.65-0.22-1.04-0.8-1.35c-2.51-1.34-4.94-2.81-7.44-4.17c-1.52-0.83-3.03-1.72-4.51-2.65
	c-0.64-0.4-1.16-0.4-1.83-0.01c-2.12,1.23-4.26,2.44-6.39,3.65c-0.16,0.09-0.31,0.19-0.48,0.26c-0.51,0.21-0.73,0.09-0.78-0.46
	c-0.05-0.61-0.02-1.23-0.02-1.84c0-1.45,0.01-2.91,0-4.36c0-0.53,0.2-0.88,0.69-1.15c2.19-1.2,4.38-2.42,6.53-3.69
	c0.36-0.21,0.74-0.35,1.13-0.48C25.25,31.56,25.39,31.56,25.53,31.56z"/>
<path class="st1" d="M147,51.33c-0.1,0.2-0.2,0.39-0.3,0.59c-0.05,0-0.09,0.01-0.14,0.01c-0.08-0.91-0.17-1.83-0.25-2.74
	c-0.07-0.81-0.09-1.63-0.22-2.43c-0.12-0.73,0.06-1.31,0.62-1.92c0.06,0.92,0.11,1.76,0.18,2.6c0.02,0.21-0.11,0.45,0.12,0.62
	C147,49.15,147,50.24,147,51.33z"/>
<path class="st2" d="M145.45,61.78c-0.06-0.32,0.13-0.85-0.2-1.41c-0.27-0.45,0.25-0.96,0.39-1.45c0.04-0.13,0.33-0.26,0.54-0.2
	c0.24,0.07,0.12,0.31,0.14,0.47c0.02,0.27-0.02,0.5,0.34,0.64c0.3,0.12,0.25,0.59,0.03,0.67c-0.48,0.17-0.36,0.51-0.37,0.82
	c-0.01,0.43,0,0.86,0,1.29c0,0.18-0.03,0.42,0.18,0.47c0.47,0.11,0.37,0.44,0.33,0.75c-0.03,0.23-0.24,0.25-0.43,0.24
	c-0.35-0.01-0.68-0.05-0.82-0.46C145.4,63.07,145.52,62.52,145.45,61.78z"/>
<path class="st3" d="M33.67,51.76c-0.01,1.99-0.01,3.99-0.02,5.98c-0.53,0.34-1.11,0.19-1.67,0.14c-0.34-0.03-0.38-0.35-0.42-0.62
	c-0.05-1.22-0.01-2.45-0.02-3.68c0-0.2,0-0.41-0.04-0.61c-0.05-0.21-0.19-0.3-0.4-0.3c-0.22,0-0.35,0.12-0.36,0.33
	c-0.05,1.2-0.05,2.41,0,3.61c0.01,0.34,0.35,0.39,0.56,0.55c0.34,0.55,0.27,0.71-0.34,0.77c-0.16,0.02-0.32,0.01-0.48,0.01
	c-4.14,0-8.28,0-12.41,0c-1.06,0-1.1-0.04-1.1-1.06c0-1.45,0-2.9,0-4.36c0-0.27-0.05-0.55,0.11-0.8c0.27-0.22,0.6-0.21,0.92-0.21
	c4.92,0,9.85,0,14.77,0C33.08,51.52,33.41,51.51,33.67,51.76z"/>
<path class="st4" d="M33.65,59.57c-2.74,1.57-5.34,3.06-7.94,4.55c-0.23,0.13-0.42,0.18-0.69,0.03c-2.62-1.5-5.25-2.99-8.04-4.58
	C22.61,59.57,28.06,59.57,33.65,59.57z"/>
<path class="st5" d="M18.89,48.99c1.5-0.99,3.1-1.82,4.66-2.72c0.06-0.03,0.14-0.05,0.18-0.09c1.11-1.07,2.14-0.72,3.3,0.01
	c1.62,1.02,3.32,1.9,4.99,2.84c0.29,0.17,0.56,0.35,0.85,0.52l-0.01,0.02c0.21,0.16,0.55,0.28,0.21,0.62
	c-0.33,0.14-0.66,0.11-0.99,0.03c-0.41-0.17-0.84-0.2-1.28-0.2c-3.79,0-7.58,0-11.37,0c-0.07,0-0.14,0.01-0.21,0
	c-0.36-0.05-0.9,0.17-1.02-0.3C18.08,49.32,18.62,49.21,18.89,48.99z"/>
<path class="st6" d="M35.34,58.28c0.2,0.66,0.11,0.79-0.61,0.8c-2.1,0.01-4.19,0-6.29,0c-4.1,0-8.2,0-12.3,0
	c-0.21,0-0.42-0.01-0.62-0.04c-0.23-0.04-0.35-0.18-0.35-0.43c0-0.28,0.16-0.34,0.4-0.34c0.32,0,0.64-0.01,0.97-0.01
	c0.28-0.19,0.61-0.19,0.93-0.19c5.2,0,10.41-0.01,15.61,0.02C33.83,58.1,34.6,58.04,35.34,58.28z"/>
<path class="st7" d="M33.67,51.76c-5.52,0.01-11.05,0.01-16.57,0.02c-0.04,0.03-0.09,0.03-0.13,0.01c-0.01-0.02-0.02-0.04-0.03-0.07
	c0.08-0.14,0.09-0.31-0.12-0.22c-0.64,0.27-1.14-0.05-1.67-0.3c0.03-0.03,0.06-0.06,0.09-0.09c0.37-0.19,0.76-0.13,1.15-0.13
	c5.88,0,11.76,0,17.65-0.01c0.34,0,0.82,0.21,0.95-0.37c0-0.09,0.02-0.16,0.08-0.23c0.42-0.02,0.61,0.2,0.54,0.59
	c-0.09,0.48-0.53,0.44-0.87,0.49c-0.19,0.03-0.4-0.08-0.6-0.1C33.82,51.3,33.65,51.43,33.67,51.76z"/>
<path class="st8" d="M35.34,58.28c-6.15,0-12.3,0.01-18.45,0.01c-0.11,0-0.23-0.02-0.34-0.03c0.23-0.32,0.29-0.68,0.28-1.07
	c-0.02-1.59-0.01-3.17,0-4.76c0-0.24-0.08-0.5,0.12-0.72c0,0,0.03,0.03,0.03,0.03c0.12,1.77,0.02,3.53,0.05,5.3
	c0.01,0.76,0,0.76,0.79,0.76c4.6-0.03,9.2,0.04,13.79-0.02c0.68-0.01,1.38-0.05,2.06,0.07c0.23,0.27,0.54,0.14,0.82,0.15
	C34.8,58.03,35.11,58.01,35.34,58.28z"/>
<path class="st9" d="M35.07,50.37c0,0.05,0,0.09-0.01,0.14c-0.35,0.32-0.78,0.22-1.18,0.22c-5.76,0.01-11.53,0-17.29,0
	c-0.51,0-1.02-0.02-1.39,0.43c0,0-0.05,0.04-0.05,0.04c-0.34-0.18-0.21-0.53-0.08-0.67c0.22-0.24,0.55-0.42,0.94-0.29
	c0.39,0.14,0.8,0.36,1.1-0.15c0.22-0.15,0.46-0.21,0.72-0.2c4.44,0.17,8.87,0.03,13.31,0.07c0.35,0,0.69,0.04,1.02,0.12
	c0.32,0,0.64,0,0.95,0c0.07-0.03,0.12-0.01,0.16,0.05c0.23,0.43,0.53,0.24,0.83,0.1C34.45,50.08,34.8,49.92,35.07,50.37z"/>
<path class="st10" d="M32.16,50.08c-4.37,0.01-8.75,0.01-13.12,0.02c-0.64,0-1.29,0-1.93-0.01c0.47-0.56,1.1-0.87,1.78-1.1
	c-0.11,0.31-0.51,0.38-0.61,0.72c0.23,0.22,0.52,0.11,0.77,0.11c3.98,0.01,7.95,0.01,11.93,0C31.39,49.83,31.8,49.84,32.16,50.08z"
	/>
<path class="st11" d="M33.67,57.86c-5.4,0.01-10.79,0.01-16.19,0.02c-0.37,0-0.54-0.08-0.53-0.49c0.02-1.88,0.02-3.76,0.03-5.64
	c0.04-0.01,0.09,0,0.13,0.02c0,1.77,0.02,3.54-0.01,5.31c-0.01,0.49,0.11,0.67,0.65,0.67c4.39-0.02,8.78-0.02,13.17,0
	c0.53,0,0.64-0.12,0.29-0.54c0.17-0.17,0.35-0.17,0.53-0.03c-0.04,0.42,0.12,0.61,0.58,0.57c0.45-0.03,0.9-0.01,1.35-0.01
	C33.67,57.78,33.68,57.82,33.67,57.86z"/>
<path class="st12" d="M33.27,50.13c-0.05-0.02-0.11-0.04-0.16-0.05c0.04-0.23-0.2-0.33-0.26-0.51c0.22-0.02,0.39,0.1,0.55,0.21
	c0.09,0.06,0.3,0.09,0.18,0.26C33.53,50.11,33.38,50.1,33.27,50.13z"/>
<path class="st13" d="M32.86,49.55c-0.39-0.01-0.64-0.23-0.85-0.52C32.39,49.04,32.66,49.24,32.86,49.55z"/>
<g>
	<path class="st14" d="M55.08,61.37c-0.23-0.28-0.17-0.39-0.01-0.65c0.62-1.01-0.03-2.13-1.22-2.14c-0.28,0-0.55,0.02-0.83,0
		c-0.33-0.02-0.45,0.11-0.44,0.43c0.01,0.75,0,1.49,0,2.24c0,0,0,0,0,0c0,0.54,0,1.09,0,1.63c0,1.13,0,1.12,1.17,1.14
		c0.63,0.01,1.22-0.07,1.49-0.72C55.53,62.64,55.55,61.94,55.08,61.37z M53.84,59.63c0.3,0.01,0.45,0.17,0.46,0.47
		c0.01,0.33-0.16,0.5-0.49,0.51c-0.36,0.01-0.31-0.25-0.33-0.45C53.5,59.9,53.44,59.61,53.84,59.63z M53.84,62.98
		c-0.47,0.03-0.35-0.33-0.34-0.57c0.02-0.29-0.22-0.75,0.39-0.74c0.4,0.01,0.54,0.28,0.55,0.7C54.45,62.73,54.24,62.96,53.84,62.98z
		"/>
</g>
<g>
	<path class="st15" d="M79.22,51.77c0.52-0.84,0.4-1.66-0.07-2.58c-0.27,0.43-0.6,0.73-0.2,1.19c0.09,0.11,0.1,0.3,0.14,0.45
		c0.04,0.13,0.09,0.29-0.04,0.37c-0.13,0.08-0.26-0.02-0.38-0.08c-0.55-0.28-1.09-0.55-0.66-1.32c0.09-0.16,0.19-0.47-0.03-0.55
		c-0.33-0.13-0.32,0.23-0.4,0.42c-0.45,1-1.02,1.29-2.21,1.07c0.13-0.31,0.26-0.63,0.38-0.94c0.07-0.18,0.23-0.42-0.01-0.54
		c-0.3-0.15-0.31,0.19-0.38,0.35c-0.33,0.82-0.95,1.22-1.82,1.37c-0.48,0.08-0.96,0.05-1.44,0.09c-0.63,0.06-0.87-0.24-0.91-0.82
		c-0.06-0.76-0.01-1.53-0.21-2.31c-0.77,0.66-0.5,1.46-0.43,2.23c0.08,0.89,0.08,0.89-0.79,0.89c-0.44,0-0.88,0.01-1.31-0.01
		c-0.57-0.03-0.83-0.33-0.74-0.9c0.05-0.33,0.19-0.65,0.09-1c-0.6,0.25-0.6,0.25-0.69,0.85c-0.17,1.05-0.17,1.05-1.24,1.05
		c-0.07,0-0.14,0-0.21,0c-1.13,0-1.46-0.26-1.7-1.33c-0.19-0.82-0.66-1-1.37-0.53c-0.36,0.24-0.64,0.56-0.76,0.95
		c-0.23,0.78-0.72,1.04-1.5,0.92c-0.16-0.02-0.32,0-0.48,0c-0.86,0-0.93-0.06-0.99-0.9c-0.01-0.18-0.01-0.36-0.02-0.54
		c-0.11-1.57-0.21-3.14-0.32-4.71c-0.36,0.39-0.71,0.73-0.66,1.29c0.16,1.67,0.28,3.35,0.43,5.02c0.05,0.55,0.33,0.88,0.95,0.82
		c0.3-0.03,0.6-0.02,0.9,0c0.54,0.03,1.07,0.01,1.41-0.5c0.19-0.29,0.31-0.03,0.43,0.05c0.42,0.29,0.83,0.56,1.3,0.76
		c0.38,0.16,0.69,0.26,0.86-0.25c0.05-0.15,0.14-0.28,0.36-0.18c0.55,0.24,1.14,0.07,1.7,0.12c0.47,0.04,0.93,0.04,1.07-0.57
		c0.61,0.75,3.06,0.82,3.68,0.07c0.18,0.58,0.65,0.48,1.08,0.5c0.81,0.03,1.61-0.02,2.37-0.34c0.1-0.04,0.19-0.16,0.31-0.06
		c0.48,0.44,1.06,0.26,1.49,0.08c0.83-0.35,1.5-0.23,2.18,0.29C78.73,52.29,79,52.13,79.22,51.77z M62.64,50.76
		c-0.16-0.12-0.46-0.23-0.28-0.52c0.19-0.29,0.53-0.34,0.84-0.38c0.3-0.04,0.29,0.23,0.31,0.42c0.04,0.4,0.23,0.75,0.44,1.18
		C63.39,51.33,63.01,51.04,62.64,50.76z"/>
	<path class="st15" d="M144.3,51.76c0.15-0.59,0.4-1.13,0.31-1.78c-0.14-1.01-0.53-2.21-0.14-3.01c0.53-1.1,0.07-1.65-0.55-2.39
		c-0.2,0.36-0.74,0.56-0.59,1.06c0.51,1.67,0.44,3.4,0.67,5.1c0.03,0.24-0.08,0.32-0.31,0.32c-0.71-0.01-1.43,0.02-2.14-0.02
		c-0.45-0.03-0.69-0.3-0.65-0.79c0.03-0.38,0.22-0.75,0.13-1.17c-0.31,0.17-0.61,0.25-0.7,0.67c-0.27,1.31-0.29,1.31-1.64,1.31
		c-0.16,0-0.32,0-0.48,0c-0.76-0.02-0.96-0.27-0.87-1.03c0.04-0.3,0.22-0.59,0.07-0.91c-0.44,0.12-0.62,0.39-0.7,0.82
		c-0.2,1.13-0.23,1.13-1.38,1.12c-0.09,0-0.18-0.01-0.28,0c-0.57,0.06-0.79-0.24-0.81-0.76c-0.02-0.57-0.07-1.13-0.11-1.7
		c-0.09-1.23-0.18-2.45-0.27-3.78c-0.49,0.59-0.69,1.1-0.59,1.77c0.16,1.12,0.23,2.26,0.3,3.39c0.05,0.79-0.18,1.02-0.99,1.02
		c-1.31,0.01-2.62,0.01-3.94,0c-1.1-0.01-1.39-0.39-1.15-1.45c0.03-0.13,0.1-0.26-0.02-0.39c-0.5,0.45-0.74,1.44-0.47,2.03
		c0.28,0.62,0.82,0.8,1.47,0.79c1.31-0.02,2.63-0.02,3.94,0.01c0.53,0.01,1.03,0.03,1.28-0.57c0.71,0.82,2.59,0.85,3.24,0.1
		c0.65,0.72,3.03,0.73,3.58-0.03c0.21,0.32,0.46,0.55,0.88,0.53c0.81-0.02,1.61-0.01,2.42,0C144.04,52.04,144.23,52.03,144.3,51.76z
		"/>
	<path class="st15" d="M85.92,52.03c0.35,0,0.69,0,1.04,0c1.27,0,1.6-0.34,1.59-1.62c0-0.27-0.04-0.54-0.06-0.81
		c-0.07-0.88-0.13-1.76-0.2-2.65c-0.04-0.51,0.76-0.74,0.53-1.19c-0.19-0.39-0.74-0.6-0.84-1.11c-0.01-0.07-0.05-0.08-0.1-0.04
		c-0.63,0.64-0.58,0.63-0.45,1.46c0.17,1.05,0.21,2.12,0.35,3.18c0.25,1.89,0.27,1.87-1.63,1.82c-0.45-0.01-0.62-0.18-0.64-0.6
		c-0.04-0.72-0.09-1.45-0.15-2.17c-0.09-1.15-0.18-2.29-0.27-3.54c-0.5,0.61-0.7,1.14-0.6,1.84c0.17,1.2-0.33,2.23-1.1,3.29
		c-0.4-2.15-1.78-3.45-3.43-4.56c-0.41,1.1,0.02,2.24,0.94,2.2c0.75-0.03,0.98,0.4,1.22,0.77c1.37,2.11,1.34,2-0.68,3.32
		c-0.48,0.31-1.03,0.52-1.63,0.82c2.8,0.23,4.17-1.24,4.8-3.66c0.11,0.78,0.16,1.51,0.21,2.23C84.89,51.88,85.05,52.03,85.92,52.03z
		"/>
	<path class="st15" d="M120.77,50.95c-0.29-0.18-0.62-0.3-0.94-0.43c-0.32-0.14-0.54-0.36-0.56-0.71c-0.07-0.95-0.47-2.07-0.11-2.81
		c0.51-1.05,0.11-1.63-0.39-2.34c-0.02-0.03-0.07-0.03-0.1-0.05c-0.61,0.62-0.57,0.62-0.44,1.47c0.16,1.08,0.22,2.17,0.36,3.25
		c0.19,1.53,0.04,1.72-1.53,1.73c-0.12,0-0.23-0.01-0.35,0c-0.42,0.06-0.63-0.08-0.67-0.53c-0.04-0.45-0.22-0.88-0.51-1.25
		c-0.38-0.5-0.8-0.55-1.3-0.17c-0.54,0.42-0.97,1.52-0.76,2.08c0.27,0.72,0.91,0.82,1.58,0.83c0.02,0,0.05,0,0.07,0
		c0.4-0.02,0.43,0.16,0.24,0.44c-0.32,0.49-0.76,0.85-1.24,1.17c-0.86,0.57-1.78,0.66-2.78,0.35c0.42,0.41,0.91,0.57,1.4,0.72
		c1.02,0.31,1.84,0.01,2.5-0.81c0.35-0.44,0.6-0.92,0.73-1.45c0.08-0.33,0.24-0.44,0.56-0.42c0.6,0.04,1.18-0.02,1.76-0.25
		c0.34-0.14,0.73-0.05,1.06,0.14c0.34,0.19,0.66,0.4,1,0.6c0.13,0.07,0.24,0.23,0.43,0.1C121.28,52.3,121.28,51.26,120.77,50.95z
		 M114.88,51.04c-0.33-0.04-0.7-0.05-0.89-0.39c-0.12-0.21,0.02-0.38,0.18-0.53c0.22-0.21,0.45-0.21,0.67-0.01
		c0.25,0.23,0.5,0.5,0.46,0.86C115.29,51.13,115.03,51.01,114.88,51.04z"/>
	<path class="st15" d="M104.75,51.42c0.21,0.43,0.48,0.62,0.9,0.61c0.81-0.01,1.61,0,2.42,0c0.18,0,0.35,0.01,0.47-0.19
		c0.51-0.83,0.31-2.2-0.45-2.93c-0.35,0.52-0.53,1.02-0.03,1.59c0.23,0.27,0.25,0.59-0.31,0.57c-0.6-0.03-1.2,0-1.79-0.01
		c-0.66-0.02-0.89-0.3-0.81-0.96c0.04-0.31,0.2-0.61,0.08-0.96c-0.32,0.1-0.56,0.23-0.67,0.59c-0.14,0.44,0.11,1.08-0.37,1.29
		c-0.4,0.18-0.95,0.05-1.43,0.05c-0.09,0-0.19-0.01-0.28,0c-0.73,0.13-0.96-0.21-0.99-0.9c-0.08-1.76-0.23-3.51-0.36-5.26
		c-0.31,0.34-0.7,0.64-0.67,1.08c0.14,1.79,0.32,3.57,0.49,5.35c0.05,0.49,0.33,0.71,0.83,0.7c0.62-0.02,1.24-0.03,1.86,0.01
		C104.14,52.07,104.55,52.01,104.75,51.42z"/>
	<path class="st14" d="M98.29,49.55c0.2,0.27,0.29,0.62,0.35,0.95c0.07,0.38,0.02,0.59-0.47,0.56c-0.76-0.04-1.52-0.01-2.28-0.01
		c-0.56,0-0.58,0.49-0.64,0.82c-0.06,0.34,0.34,0.2,0.52,0.23c0.39,0.06,0.76,0.18,1.1,0.36c0.15,0.08,0.37,0.17,0.34,0.38
		c-0.02,0.17-0.22,0.22-0.36,0.28c-0.89,0.41-1.84,0.56-2.81,0.53c-1.32-0.03-1.98-0.94-1.68-2.21c0.09-0.38,0.35-0.73,0.29-1.31
		c-0.66,0.9-1.01,1.74-0.98,2.73c0.03,0.98,0.5,1.56,1.48,1.75c1.15,0.23,2.22-0.11,3.29-0.46c0.86-0.28,1.21-0.98,1.24-1.7
		c0.02-0.56,0.27-0.47,0.55-0.43c0.6,0.1,0.81-0.2,0.91-0.72c0.25-1.26-0.03-2.41-0.71-3.51C97.99,48.39,97.84,48.94,98.29,49.55z"
		/>
	<path class="st16" d="M73.99,58.59c-0.36-0.05-0.61,0.01-0.75,0.4c-0.17,0.48-0.31,0.98-0.64,1.47c-0.22-0.57-0.43-1.06-0.62-1.57
		c-0.13-0.34-0.4-0.33-0.68-0.31c-0.33,0.02-0.33,0.25-0.33,0.49c0,1.5,0.01,3,0,4.5c0,0.32,0.11,0.44,0.44,0.44
		c0.34,0,0.43-0.13,0.43-0.44c-0.01-0.79,0-1.58,0-2.46c0.33,0.39,0.33,0.82,0.48,1.18c0.07,0.15,0.13,0.3,0.33,0.3
		c0.2,0,0.25-0.16,0.3-0.32c0.1-0.29,0.2-0.59,0.3-0.88c0.04,0,0.08,0.01,0.13,0.01c0,0.68,0,1.36,0,2.04
		c0,0.32,0.02,0.58,0.47,0.57c0.43,0,0.48-0.23,0.48-0.57c-0.01-1.43,0-2.86,0-4.29C74.31,58.92,74.36,58.64,73.99,58.59z"/>
	<path class="st2" d="M138.96,59.69c-0.61,0.06-1.19,0.09-1.8,0.02c-0.16-0.02-0.36,0.02-0.55-0.02c-0.4-0.08-0.66,0.03-0.63,0.52
		c0.03,0.54,0.01,1.09,0.01,1.63c0,0.52-0.01,1.04,0,1.56c0,0.27-0.12,0.61,0.39,0.61c0.54,0.01,0.43-0.35,0.43-0.65
		c0-0.73,0-1.45,0.01-2.18c0-0.19-0.01-0.46,0.28-0.46c0.28,0,0.27,0.27,0.27,0.46c0.01,0.77,0.01,1.54,0.01,2.31
		c0,0.25-0.04,0.49,0.36,0.5c0.38,0.01,0.47-0.16,0.46-0.49c-0.01-0.7-0.01-1.41,0-2.11c0-0.25-0.09-0.65,0.26-0.67
		c0.4-0.02,0.28,0.39,0.28,0.63c0.02,0.73,0.02,1.45,0.01,2.18c0,0.31,0.09,0.45,0.43,0.45c0.31,0,0.4-0.14,0.39-0.41
		c-0.01-1.04,0-2.09-0.02-3.13C139.53,60.1,139.37,59.65,138.96,59.69z"/>
	<path class="st17" d="M63.36,62.41C63.36,62.41,63.36,62.41,63.36,62.41c0-0.54,0-1.09,0-1.63c-0.01-0.95-0.01-0.95-0.95-1.02
		c-0.09-0.01-0.17-0.06-0.26-0.08c-0.55-0.12-0.9,0.09-0.99,0.65c-0.17,1.04-0.15,2.07,0.02,3.11c0.07,0.4,0.35,0.75,0.74,0.64
		c0.68-0.2,0.59,0.2,0.57,0.58c-0.02,0.29,0.02,0.47,0.39,0.48c0.37,0.01,0.48-0.13,0.48-0.48C63.35,63.9,63.36,63.16,63.36,62.41z
		 M62.48,62.76c-0.02,0.14-0.09,0.28-0.25,0.28c-0.16,0.01-0.25-0.12-0.27-0.26c-0.08-0.61-0.1-1.22-0.01-1.82
		c0.02-0.14,0.09-0.28,0.25-0.28c0.2,0,0.27,0.17,0.28,0.33c0.03,0.29,0.04,0.59,0.05,0.91C62.53,62.17,62.51,62.47,62.48,62.76z"/>
	<path class="st14" d="M105.88,58.58c-0.46-0.01-0.39,0.27-0.39,0.54c-0.01,0.34,0.11,0.7-0.54,0.55c-0.53-0.12-0.77,0.36-0.79,0.82
		c-0.05,0.86-0.05,1.72-0.04,2.59c0.01,0.36,0.04,0.84,0.46,0.91c0.53,0.09,1.1,0.03,1.64-0.04c0.17-0.02,0.12-0.32,0.12-0.49
		c0.01-0.7,0-1.41,0-2.11c0,0,0,0,0.01,0c0-0.73,0-1.45,0-2.18C106.35,58.83,106.32,58.59,105.88,58.58z M105.46,62.79
		c-0.02,0.13-0.11,0.26-0.28,0.25c-0.13-0.01-0.19-0.12-0.22-0.23c-0.12-0.63-0.13-1.26,0-1.89c0.03-0.14,0.12-0.27,0.27-0.25
		c0.15,0.02,0.24,0.15,0.25,0.29c0.02,0.29,0,0.59,0,0.88c0.01,0,0.02,0,0.04,0C105.5,62.16,105.5,62.48,105.46,62.79z"/>
	<path class="st18" d="M60.1,59.7c-0.52,0.05-1.07-0.18-1.57,0.09c-0.15,0.08-0.09,0.29-0.09,0.45c0,0.54,0,1.09,0,1.63
		c0,0.57,0.01,1.13-0.01,1.7c-0.01,0.32,0.11,0.44,0.43,0.45c0.38,0.01,0.4-0.19,0.4-0.47c-0.01-0.77-0.01-1.54,0.01-2.31
		c0-0.21-0.02-0.52,0.31-0.5c0.28,0.02,0.23,0.3,0.23,0.49c0.01,0.75,0,1.5,0,2.25c0,0.27-0.05,0.54,0.39,0.55
		c0.41,0.01,0.44-0.2,0.43-0.5c-0.01-1-0.01-2-0.01-2.99C60.64,60.13,60.46,59.67,60.1,59.7z"/>
	<path class="st17" d="M98.65,59.76c-0.51-0.14-1.09-0.06-1.64-0.03c-0.19,0.01-0.15,0.25-0.15,0.4c0,0.57,0,1.13,0,1.7c0,0,0,0,0,0
		c0,0.57,0.01,1.13,0,1.7c0,0.32,0.06,0.51,0.46,0.5c0.39-0.01,0.37-0.25,0.37-0.5c0-0.75-0.01-1.5,0.01-2.24
		c0-0.21-0.03-0.52,0.28-0.53c0.34-0.01,0.27,0.31,0.27,0.52c0.01,0.75,0.01,1.5,0,2.24c0,0.32,0.06,0.51,0.45,0.52
		c0.39,0,0.38-0.22,0.38-0.49c0-0.91,0-1.81,0.01-2.72C99.07,60.4,99.08,59.88,98.65,59.76z"/>
	<path class="st15" d="M144.93,60.65c0-0.38-0.06-0.83-0.45-0.91c-0.53-0.1-1.09-0.04-1.64,0.01c-0.16,0.01-0.12,0.27-0.13,0.42
		c0,0.57,0,1.14,0,1.7c0,0.45-0.02,0.91,0.01,1.36c0.02,0.3-0.23,0.78,0.43,0.78c0.63-0.01,0.37-0.47,0.38-0.74
		c0.04-0.7,0.01-1.41,0.02-2.11c0-0.2,0.03-0.45,0.31-0.43c0.25,0.02,0.23,0.25,0.23,0.43c0,0.77,0,1.54,0,2.32
		c0,0.28-0.02,0.54,0.41,0.54c0.4,0.01,0.45-0.2,0.45-0.51C144.94,62.56,144.94,61.61,144.93,60.65z"/>
	<path class="st1" d="M115.56,59.72c-0.14,0.11-0.12,0.29-0.12,0.44c0,0.57,0,1.13,0,1.7c0,0.57,0.01,1.14,0,1.7
		c-0.01,0.3,0.07,0.46,0.42,0.45c0.35-0.01,0.43-0.17,0.43-0.47c0-0.75,0-1.5,0.01-2.25c0-0.21-0.11-0.55,0.2-0.57
		c0.36-0.02,0.3,0.34,0.3,0.57c0.02,0.77,0.01,1.54,0.01,2.31c0,0.28,0.11,0.41,0.41,0.39c0.27-0.01,0.45-0.06,0.44-0.37
		c-0.02-1.04,0.02-2.09-0.05-3.13C117.58,59.84,116.1,59.3,115.56,59.72z"/>
	<path class="st19" d="M95.84,59.68c-0.51-0.03-1.04,0.03-1.55,0.11c-0.15,0.02-0.1,0.28-0.1,0.44c0,0.55,0,1.09,0,1.64
		c0,0.57,0,1.14,0,1.7c0,0.29,0.06,0.46,0.42,0.46c0.34,0,0.44-0.14,0.43-0.45c-0.01-0.73-0.01-1.45,0-2.18
		c0.01-0.24-0.14-0.65,0.27-0.64c0.36,0.02,0.25,0.42,0.26,0.67c0.01,0.75,0.01,1.5,0,2.25c0,0.28,0.14,0.35,0.39,0.34
		c0.2-0.01,0.45,0.02,0.45-0.28c-0.01-1.13,0.08-2.27-0.05-3.4C96.32,60.03,96.17,59.7,95.84,59.68z"/>
	<path class="st19" d="M65.55,59.67c-0.39,0-0.38,0.24-0.38,0.5c0,0.77,0,1.54,0,2.31c0,0.2,0.02,0.48-0.23,0.5
		c-0.31,0.02-0.29-0.28-0.29-0.5c0-0.77-0.01-1.54,0-2.31c0-0.28-0.04-0.49-0.4-0.49c-0.38-0.01-0.46,0.18-0.46,0.51
		c0.01,0.88,0,1.77,0.01,2.65c0,0.43-0.02,0.99,0.45,1.12c0.5,0.14,1.08,0.06,1.62,0.03c0.2-0.01,0.15-0.25,0.15-0.4
		c0.01-0.57,0-1.13,0-1.7c0-0.57-0.01-1.13,0-1.7C66.03,59.84,65.91,59.68,65.55,59.67z"/>
	<path class="st18" d="M89.75,60.69c-0.02-0.38-0.05-0.88-0.49-0.97c-0.51-0.1-1.06-0.04-1.59,0c-0.16,0.01-0.11,0.27-0.11,0.43
		c0,1.11,0,2.23-0.01,3.34c0,0.28-0.03,0.54,0.4,0.53c0.41-0.01,0.43-0.25,0.42-0.54c0-0.75-0.01-1.5,0-2.25
		c0-0.19-0.04-0.48,0.23-0.49c0.3-0.01,0.31,0.29,0.32,0.51c0.01,0.77,0,1.54,0.01,2.32c0,0.22-0.05,0.46,0.33,0.46
		c0.35,0,0.5-0.12,0.5-0.47c-0.01-0.48,0-0.95,0-1.43C89.76,61.64,89.78,61.17,89.75,60.69z"/>
	<path class="st18" d="M79.56,61.88c0-0.57,0-1.13,0-1.7c0-0.27-0.02-0.5-0.38-0.51c-0.38-0.01-0.46,0.18-0.45,0.51
		c0.01,0.77,0,1.54,0,2.31c0,0.2,0.01,0.47-0.24,0.49c-0.32,0.02-0.3-0.27-0.3-0.5c0-0.77-0.01-1.54,0-2.31
		c0.01-0.34-0.1-0.5-0.46-0.5c-0.4,0-0.37,0.24-0.37,0.5c0,0.88,0,1.77,0,2.65c0,0.44-0.03,0.99,0.43,1.12
		c0.5,0.15,1.09,0.06,1.63,0.03c0.2-0.01,0.15-0.25,0.15-0.4C79.57,63.01,79.56,62.44,79.56,61.88z"/>
	<path class="st2" d="M76.9,62.66c0.02-0.16,0-0.32,0-0.48c-0.01,0-0.02,0-0.03,0c0-0.52,0.05-1.05-0.01-1.56
		c-0.1-0.83-0.91-1.25-1.68-0.92c-0.36,0.15-0.36,0.45-0.31,0.74c0.04,0.29,0.27,0.17,0.43,0.13c0.25-0.06,0.55-0.18,0.65,0.12
		c0.09,0.28-0.27,0.31-0.45,0.43c-0.78,0.51-1.11,1.72-0.66,2.52c0.13,0.23,0.34,0.49,0.58,0.4c0.45-0.17,0.97,0.16,1.3-0.1
		C77.13,63.65,76.85,63.1,76.9,62.66z M76.08,62.4c-0.07,0.23,0.09,0.6-0.28,0.64c-0.26,0.03-0.25-0.26-0.25-0.46
		c-0.01-0.29,0.1-0.61,0.37-0.64C76.23,61.91,76.01,62.24,76.08,62.4z"/>
	<path class="st2" d="M58,62.14c0-0.41,0-0.82,0-1.22c-0.01-1.02-0.47-1.41-1.47-1.27c-0.42,0.06-0.61,0.29-0.57,0.69
		c0.06,0.5,0.38,0.23,0.62,0.19c0.22-0.04,0.44-0.05,0.52,0.18c0.06,0.19-0.15,0.25-0.29,0.31c-0.79,0.36-1.07,0.99-1.02,1.82
		c0.03,0.44,0.05,0.97,0.49,1.1c0.49,0.14,1.05,0.06,1.58,0.02c0.17-0.01,0.14-0.26,0.14-0.41C58.01,63.09,58,62.61,58,62.14z
		 M57.18,62.5c0.01,0.2,0.05,0.43-0.18,0.54c-0.06,0.03-0.19-0.02-0.23-0.07c-0.14-0.17-0.17-0.38-0.09-0.58
		c0.08-0.2,0.17-0.41,0.43-0.48C57.25,62.1,57.16,62.31,57.18,62.5z"/>
	<path class="st17" d="M93.04,62.14c0.64,0.08,0.81-0.19,0.74-0.76c-0.04-0.31-0.02-0.63-0.11-0.94c-0.15-0.53-0.49-0.81-1.05-0.79
		c-0.58,0.02-0.93,0.31-1.05,0.88c-0.09,0.42-0.12,0.85-0.13,1.28c0.03,0.36,0.03,0.72,0.09,1.08c0.17,0.98,0.84,1.39,1.79,1.12
		c0.16-0.04,0.32-0.08,0.39-0.25c0.08-0.19,0.11-0.4,0.03-0.6c-0.12-0.29-0.35-0.12-0.53-0.1c-0.47,0.06-0.85-0.02-0.87-0.58
		C92.32,61.93,92.79,62.11,93.04,62.14z M92.34,60.98c0.02-0.19,0.06-0.43,0.33-0.41c0.22,0.02,0.23,0.24,0.27,0.35
		c0.02,0.24-0.05,0.34-0.26,0.35C92.47,61.27,92.31,61.22,92.34,60.98z"/>
	<path class="st17" d="M108.39,62.14c0.56,0.05,0.8-0.12,0.72-0.7c-0.04-0.31-0.01-0.63-0.09-0.94c-0.14-0.56-0.49-0.85-1.07-0.85
		c-0.61,0-0.93,0.34-1.04,0.89c-0.09,0.42-0.14,0.85-0.11,1.15c0,0.31-0.02,0.49,0,0.67c0.05,0.4,0.04,0.82,0.26,1.18
		c0.32,0.52,1.35,0.73,1.84,0.38c0.25-0.18,0.22-0.44,0.17-0.68c-0.07-0.35-0.33-0.2-0.55-0.17c-0.43,0.07-0.8,0.03-0.86-0.5
		C107.63,61.94,108.1,62.11,108.39,62.14z M107.69,60.91c0.03-0.18,0.11-0.37,0.35-0.34c0.23,0.04,0.21,0.26,0.25,0.35
		c0.02,0.3-0.12,0.34-0.3,0.34C107.74,61.26,107.65,61.13,107.69,60.91z"/>
	<path class="st2" d="M85.52,59.66c-0.4,0.1-0.49,0.37-0.45,0.72c0.06,0.47,0.36,0.18,0.56,0.15c0.22-0.03,0.45-0.05,0.53,0.18
		c0.09,0.25-0.19,0.26-0.33,0.35c-0.83,0.51-1.12,1.13-0.94,2.05c0.07,0.36,0.13,0.81,0.53,0.88c0.49,0.09,1.01,0.03,1.51-0.03
		c0.18-0.02,0.14-0.27,0.14-0.41c0.01-0.47,0-0.95,0-1.42c0,0,0,0,0,0c0-0.45,0.02-0.91,0-1.36C87.03,59.87,86.41,59.44,85.52,59.66
		z M86.11,63.03c-0.04,0.03-0.19,0-0.24-0.05c-0.16-0.19-0.13-0.42-0.08-0.64c0.04-0.18,0.14-0.32,0.44-0.45c0,0.23,0.01,0.4,0,0.58
		C86.21,62.66,86.3,62.88,86.11,63.03z"/>
	<path class="st2" d="M67.96,62.14c0.63,0.07,0.9-0.15,0.8-0.78c-0.05-0.31-0.06-0.63-0.13-0.94c-0.13-0.54-0.51-0.78-1.06-0.78
		c-0.53,0-0.85,0.27-0.99,0.77c-0.14,0.47-0.11,0.94-0.12,1.42c0,0.29-0.02,0.59,0,0.88c0.1,1.05,0.79,1.54,1.81,1.3
		c0.21-0.05,0.39-0.11,0.43-0.37c0.06-0.48-0.03-0.74-0.62-0.59c-0.48,0.12-0.77-0.16-0.78-0.61
		C67.28,61.97,67.72,62.11,67.96,62.14z M67.27,61c0.02-0.23,0.11-0.46,0.38-0.46c0.23,0,0.22,0.24,0.27,0.39
		c-0.01,0.21-0.07,0.35-0.31,0.36C67.41,61.28,67.25,61.25,67.27,61z"/>
	<path class="st19" d="M100.86,62.12c0.97-0.05,0.97-0.05,0.94-1c-0.01-0.22-0.05-0.45-0.1-0.67c-0.12-0.58-0.5-0.84-1.09-0.82
		c-0.61,0.02-0.92,0.39-1.01,0.93c-0.07,0.4-0.06,0.81-0.08,1.22c0.01,0,0.03,0,0.04,0c0,0.36-0.04,0.73,0.01,1.09
		c0.12,0.96,0.84,1.38,1.79,1.13c0.43-0.11,0.45-0.39,0.42-0.73c-0.04-0.45-0.35-0.22-0.57-0.22c-0.14,0-0.28,0.02-0.41,0
		c-0.36-0.05-0.38-0.32-0.4-0.61C100.38,62.09,100.63,62.13,100.86,62.12z M100.4,61.01c0-0.22,0.02-0.41,0.3-0.48
		c0.22,0.02,0.26,0.2,0.29,0.39c0.03,0.2-0.01,0.36-0.28,0.36C100.51,61.28,100.4,61.23,100.4,61.01z"/>
	<path class="st18" d="M121.76,59.64c-0.6,0.02-0.92,0.39-1.01,0.93c-0.07,0.4-0.06,0.81-0.08,1.22c0.01,0,0.03,0,0.04,0
		c0,0.34-0.03,0.68,0.01,1.02c0.11,1.01,0.89,1.5,1.86,1.19c0.4-0.13,0.36-0.41,0.35-0.71c-0.02-0.38-0.27-0.27-0.49-0.24
		c-0.43,0.05-0.86,0.08-0.87-0.54c-0.01-0.67,0.52-0.29,0.8-0.39c0.2-0.08,0.57,0.16,0.58-0.26c0.01-0.47,0.06-0.94-0.08-1.41
		C122.7,59.88,122.34,59.62,121.76,59.64z M121.84,61.27c-0.2,0-0.3-0.07-0.3-0.27c0-0.21,0.01-0.43,0.29-0.45
		c0.25-0.01,0.27,0.2,0.29,0.31C122.15,61.13,122.1,61.28,121.84,61.27z"/>
	<path class="st20" d="M134.6,62.12c0.32-0.08,0.86,0.3,0.93-0.33c0.05-0.42,0.02-0.86-0.07-1.28c-0.12-0.58-0.5-0.9-1.13-0.86
		c-0.6,0.04-0.91,0.4-1,0.95c-0.06,0.4-0.06,0.81-0.08,1.13c0.02,0.43,0.02,0.77,0.05,1.1c0.1,1,0.89,1.48,1.87,1.17
		c0.44-0.14,0.38-0.46,0.35-0.77c-0.04-0.39-0.32-0.19-0.53-0.18c-0.16,0.01-0.32,0.03-0.48,0c-0.35-0.06-0.39-0.34-0.39-0.62
		C134.12,62.08,134.39,62.17,134.6,62.12z M134.12,60.98c0.01-0.21,0.04-0.44,0.32-0.43c0.24,0,0.26,0.21,0.27,0.44
		c0.02,0.19-0.06,0.3-0.31,0.29C134.19,61.27,134.11,61.17,134.12,60.98z"/>
	<path class="st2" d="M141.5,62.13c0.68,0.09,0.91-0.18,0.8-0.82c-0.04-0.26-0.01-0.54-0.08-0.81c-0.16-0.59-0.5-0.89-1.13-0.87
		c-0.66,0.02-0.93,0.44-1.01,1c-0.06,0.4-0.01,0.81-0.01,1.22c-0.01,0-0.02,0-0.03,0c0,0.29-0.01,0.59,0,0.88
		c0.06,1.03,0.79,1.54,1.79,1.27c0.2-0.05,0.39-0.11,0.43-0.37c0.06-0.49-0.05-0.73-0.63-0.58c-0.47,0.13-0.77-0.11-0.79-0.59
		C140.84,61.98,141.25,62.1,141.5,62.13z M140.85,60.98c0.02-0.2,0.07-0.41,0.35-0.45c0.22,0.03,0.25,0.2,0.27,0.38
		c0.02,0.2,0,0.36-0.27,0.36C140.99,61.28,140.82,61.22,140.85,60.98z"/>
	<path class="st14" d="M120.17,59.69c-0.37-0.04-0.62,0.05-0.66,0.48c-0.06,0.56-0.17,1.11-0.26,1.66c-0.03,0-0.07,0-0.1,0
		c-0.1-0.56-0.22-1.11-0.28-1.67c-0.05-0.43-0.29-0.52-0.66-0.48c-0.5,0.05-0.28,0.38-0.23,0.61c0.21,1.07,0.45,2.13,0.66,3.2
		c0.06,0.31,0.11,0.55,0.53,0.54c0.4,0,0.51-0.22,0.57-0.53c0.21-1.07,0.43-2.13,0.62-3.21C120.39,60.08,120.7,59.74,120.17,59.69z"
		/>
	<path class="st14" d="M132.05,61.22c-0.14-0.13-0.35-0.28-0.22-0.51c0.12-0.2,0.32-0.12,0.49-0.07c0.21,0.07,0.43,0.14,0.45-0.19
		c0.02-0.28,0.08-0.59-0.29-0.76c-0.78-0.34-1.59,0.15-1.64,0.99c-0.04,0.73,0.36,1.23,0.89,1.67c0.17,0.14,0.38,0.31,0.25,0.57
		c-0.12,0.25-0.35,0.24-0.59,0.17c-0.21-0.05-0.49-0.19-0.53,0.19c-0.03,0.31-0.08,0.66,0.38,0.74c0.16,0.03,0.32,0.03,0.42,0.04
		c0.81-0.01,1.18-0.39,1.26-1.11C133.02,62.17,132.57,61.69,132.05,61.22z"/>
	<path class="st18" d="M124.46,61.23c-0.17-0.13-0.33-0.3-0.22-0.52c0.1-0.21,0.32-0.13,0.49-0.07c0.4,0.16,0.46-0.03,0.48-0.37
		c0.02-0.61-0.38-0.64-0.79-0.62c-0.46-0.03-0.81,0.12-1,0.51c-0.26,0.53-0.22,1.07,0.13,1.54c0.18,0.26,0.45,0.45,0.66,0.69
		c0.15,0.16,0.35,0.34,0.18,0.59c-0.14,0.21-0.34,0.17-0.55,0.12c-0.2-0.04-0.48-0.2-0.55,0.16c-0.05,0.27-0.05,0.55,0.24,0.72
		c0.73,0.42,1.73-0.12,1.82-0.95C125.41,62.25,125.05,61.69,124.46,61.23z"/>
	<path class="st15" d="M129.7,61.18c-0.13-0.12-0.3-0.26-0.2-0.46c0.11-0.21,0.31-0.13,0.49-0.08c0.2,0.06,0.44,0.16,0.51-0.13
		c0.06-0.26,0.09-0.54-0.18-0.74c-0.58-0.41-1.54-0.04-1.71,0.66c-0.19,0.82,0.21,1.39,0.79,1.89c0.19,0.16,0.42,0.35,0.29,0.63
		c-0.14,0.29-0.41,0.22-0.66,0.14c-0.46-0.14-0.5,0.13-0.47,0.47c0.04,0.52,0.45,0.49,0.81,0.51c0.91,0.02,1.42-0.59,1.28-1.51
		C130.55,61.94,130.11,61.57,129.7,61.18z"/>
	<path class="st14" d="M111.02,48.92c-0.52,0.61-0.55,1.12,0.15,1.63c0.33,0.24,0.64,0.61,0.44,1.11c-0.51,1.27-2.2,2.16-3.54,1.88
		c-0.11-0.02-0.27-0.12-0.34,0.08c0.8,0.65,1.93,0.9,2.6,0.59C112.36,53.27,112.74,50.4,111.02,48.92z"/>
	<path class="st14" d="M56.12,49.24c-0.32-0.38-0.44-0.35-0.64,0.1c-0.19,0.43-0.18,0.68,0.22,1c0.4,0.32,0.91,0.71,0.61,1.36
		c-0.61,1.34-2.14,2.09-3.62,1.8c-0.08-0.02-0.17,0-0.4,0c1.04,0.79,2.16,1.02,2.86,0.65C56.9,53.25,57.39,50.75,56.12,49.24z"/>
	<path class="st21" d="M84.36,63.09c-0.24-0.06-0.18-0.28-0.19-0.46c-0.01-0.39-0.02-0.77,0-1.16c0.02-0.37-0.17-0.8,0.39-1.02
		c0.17-0.07,0.21-0.53-0.05-0.64c-0.35-0.15-0.34-0.36-0.34-0.64c0-0.17,0.08-0.42-0.16-0.45c-0.16-0.02-0.45,0.05-0.49,0.16
		c-0.19,0.47-0.65,1.02-0.45,1.43c0.29,0.58,0.19,1.13,0.25,1.69c0.03,0.52-0.07,1.04,0.09,1.56c0.12,0.4,0.43,0.5,0.8,0.5
		c0.18,0,0.42,0.04,0.44-0.2C84.68,63.58,84.85,63.22,84.36,63.09z"/>
	<path class="st15" d="M126.97,60.49c0.22-0.09,0.29-0.56-0.07-0.7c-0.34-0.14-0.26-0.37-0.3-0.6c-0.03-0.17,0.14-0.48-0.19-0.47
		c-0.25,0.01-0.6,0.1-0.59,0.45c0,0.29-0.06,0.5-0.27,0.72c-0.13,0.14-0.16,0.42,0,0.57c0.31,0.27,0.25,0.61,0.26,0.94
		c0.01,0.63,0,1.27,0.01,1.9c0,0.5,0.3,0.73,0.82,0.79c0.14-0.03,0.42,0.03,0.46-0.22c0.03-0.24,0.2-0.57-0.16-0.71
		c-0.31-0.12-0.32-0.34-0.32-0.6c0.01-0.41-0.02-0.81,0-1.22C126.62,61.02,126.51,60.69,126.97,60.49z"/>
	<path class="st22" d="M81.66,59.89c0.01-0.16-0.1-0.29-0.25-0.22c-0.34,0.15-0.66,0.08-1,0.02C80.06,59.62,80,59.86,80,60.15
		c0.01,0.57,0,1.13,0,1.7c0,0,0,0,0,0c0,0.57,0.01,1.13,0,1.7c0,0.29,0.07,0.46,0.42,0.47c0.36,0.01,0.42-0.17,0.42-0.46
		c-0.01-0.59-0.03-1.18,0-1.77c0.02-0.44,0.04-0.89,0.63-1.08C81.88,60.6,81.63,60.18,81.66,59.89z"/>
	<path class="st14" d="M114.51,58.58c-0.42,0-0.42,0.23-0.42,0.53c0.01,0.7,0,1.41,0,2.11c0,0,0,0,0,0c0,0.75,0.01,1.5,0,2.25
		c0,0.32,0.01,0.57,0.46,0.56c0.43,0,0.41-0.23,0.41-0.53c0-1.47-0.01-2.95,0-4.42C114.96,58.75,114.9,58.58,114.51,58.58z"/>
	<path class="st15" d="M111.75,58.58c-0.36,0-0.43,0.17-0.42,0.46c0.01,0.73,0,1.45,0,2.18c0,0,0,0,0,0c0,0.79,0,1.59,0,2.38
		c0,0.27,0.07,0.42,0.39,0.42c0.31,0,0.46-0.08,0.46-0.42c-0.01-1.52-0.01-3.04,0-4.56C112.18,58.73,112.09,58.59,111.75,58.58z"/>
	<path class="st22" d="M123.1,44.78c-0.57,0.61-0.8,1.14-0.7,1.8c0.08,0.51,0.09,1.04,0.14,1.56c0.11,1.27,0.23,2.54,0.34,3.85
		c0.28-0.15,0.31-0.36,0.35-0.55C123.62,49.25,122.99,47.11,123.1,44.78z"/>
	<path class="st23" d="M82.76,61.86c0-0.57,0-1.14,0-1.7c0-0.28-0.03-0.5-0.39-0.5c-0.33,0-0.44,0.16-0.44,0.47
		c0.01,1.14,0.01,2.27,0,3.41c0,0.28,0.04,0.48,0.4,0.48c0.41,0.01,0.43-0.22,0.43-0.52C82.75,62.95,82.76,62.41,82.76,61.86z"/>
	<path class="st15" d="M128.22,61.86c0-0.59,0-1.18,0-1.77c0-0.26-0.06-0.43-0.38-0.43c-0.32,0-0.47,0.11-0.47,0.43
		c0.01,1.16,0.01,2.31,0,3.47c0,0.3,0.09,0.45,0.43,0.46c0.35,0,0.43-0.16,0.42-0.46C128.22,63,128.22,62.43,128.22,61.86z"/>
	<path class="st20" d="M90.62,59.67c-0.33,0-0.43,0.16-0.42,0.47c0.02,0.57,0.01,1.13,0,1.7c0,0.59,0.01,1.18-0.01,1.77
		c-0.01,0.35,0.15,0.41,0.46,0.41c0.32,0,0.38-0.14,0.38-0.42c-0.01-1.16-0.01-2.31,0-3.47C91.04,59.83,90.95,59.67,90.62,59.67z"/>
	<path class="st24" d="M130.49,49.02c0.63-0.09,0.91-0.52,0.98-1.07c0.08-0.58-0.58-0.25-0.78-0.53c0.07-0.3,0.54-0.42,0.36-0.86
		c-0.52,0.35-0.93,0.76-0.95,1.39c-0.01,0.4,0.41,0.33,0.68,0.44c-0.35,0.36-0.85,0.45-1.27,0.72
		C129.88,49.23,130.18,49.06,130.49,49.02z"/>
	<path class="st15" d="M103.47,47.94c0.24,0.14,0.51,0.56,0.8,0.24c0.28-0.31,0.45-0.17,0.69-0.04c0.32,0.17,0.87-0.13,0.87-0.5
		c-0.04-0.22-0.28-0.24-0.44-0.36c-0.14-0.1-0.31-0.28-0.46-0.05c-0.25,0.37-0.48,0.22-0.72,0.02c-0.33-0.28-0.48-0.02-0.63,0.22
		C103.5,47.61,103.16,47.75,103.47,47.94z"/>
	<path class="st22" d="M95.1,56.01c0.32,0.18,0.88-0.14,0.88-0.48c0-0.19-0.75-0.61-0.86-0.46c-0.27,0.39-0.52,0.26-0.79,0.05
		c-0.35-0.27-0.48,0.03-0.64,0.23c-0.11,0.14-0.32,0.33-0.1,0.44c0.25,0.13,0.49,0.58,0.81,0.26C94.68,55.78,94.84,55.86,95.1,56.01
		z"/>
	<path class="st22" d="M107.37,55.74c0.33-0.36,0.55-0.16,0.81,0c0.16,0.1,0.29,0.14,0.42-0.02c0.14-0.17,0.27-0.35,0.38-0.5
		c-0.03-0.24-0.78-0.61-0.89-0.47c-0.25,0.33-0.49,0.27-0.74,0.06c-0.28-0.23-0.44-0.13-0.58,0.14c-0.09,0.17-0.46,0.31-0.15,0.54
		C106.83,55.64,107.1,56.02,107.37,55.74z"/>
	<path class="st23" d="M69.64,46.68c0.26,0.14,0.52,0.56,0.88,0.15c0.13-0.15,0.27-0.19,0.41-0.06c0.63,0.52,0.83-0.02,1.11-0.41
		c-0.69-0.54-0.73-0.59-0.96-0.36c-0.25,0.25-0.44,0.2-0.65,0.03c-0.32-0.26-0.54-0.14-0.7,0.17C69.66,46.35,69.33,46.5,69.64,46.68
		z"/>
	<path class="st23" d="M66.03,47.93c0.25,0.14,0.53,0.57,0.8,0.26c0.31-0.34,0.5-0.19,0.73-0.02c0.45,0.34,0.53-0.12,0.72-0.31
		c0.28-0.28-0.01-0.38-0.19-0.49c-0.17-0.11-0.32-0.27-0.55-0.25c-0.33,0.77-0.66,0.21-1,0c-0.24,0.03-0.32,0.24-0.44,0.4
		C66.03,47.63,65.77,47.78,66.03,47.93z"/>
	<path class="st25" d="M81.32,53.84c-0.09,0.02-0.18,0.05-0.27,0.05c-0.27-0.02-0.64,0.02-0.62-0.35c0.01-0.31,0.3-0.34,0.58-0.22
		c0.24,0.11,0.28-0.09,0.32-0.23c0.05-0.2-0.11-0.3-0.27-0.31c-0.35-0.03-0.6,0.19-0.81,0.43c-0.2,0.22-0.45,0.56-0.23,0.78
		c0.32,0.32,0.13,0.6,0.06,1.08c0.48-0.42,0.87-0.68,1.35-0.77c0.23-0.04,0.38-0.24,0.31-0.45C81.67,53.67,81.47,53.81,81.32,53.84z
		"/>
	<path class="st26" d="M113.06,58.57c-0.55,0.04-0.37,0.43-0.37,0.7c0.01,0.37,0.44,0.73,0.01,1.11c-0.02,0.02,0.06,0.21,0.11,0.21
		c0.13,0.01,0.29,0,0.39-0.07c0.39-0.27,0.39-0.69,0.37-1.05c0-0.13,0-0.19,0-0.26C113.58,58.86,113.61,58.53,113.06,58.57z"/>
	<path class="st15" d="M136.74,48.36c0.28-0.01,0.39-0.38,0.58-0.65c-0.25-0.23-0.52-0.53-0.83-0.51c-0.3,0.02-0.6,0.45-0.55,0.66
		C136.01,48.13,136.42,48.37,136.74,48.36z"/>
	<path class="st15" d="M141.04,53.31c-0.04-0.32-0.46-0.44-0.82-0.64c-0.17,0.25-0.51,0.51-0.48,0.74c0.03,0.32,0.49,0.47,0.78,0.5
		C140.8,53.94,141.07,53.51,141.04,53.31z"/>
	<path class="st23" d="M98.4,47.09c0.24-0.18,0.51-0.43,0.49-0.67c-0.02-0.33-0.43-0.5-0.71-0.53c-0.32-0.04-0.54,0.36-0.55,0.58
		C97.62,46.87,98.12,46.86,98.4,47.09z"/>
	<path class="st23" d="M67.41,46.98c0.05-0.23,0.53-0.44,0.04-0.7c-0.3-0.16-0.56-0.46-0.91,0.02c-0.27,0.38-0.1,0.5,0.16,0.67
		C66.94,47.07,67.17,47.22,67.41,46.98z"/>
	<path class="st24" d="M127.81,58.44c-0.38,0-0.44,0.21-0.44,0.52c0,0.31,0.11,0.45,0.43,0.46c0.39,0.01,0.45-0.21,0.43-0.51
		C128.25,58.61,128.15,58.44,127.81,58.44z"/>
	<path class="st21" d="M82.39,58.44c-0.38-0.01-0.45,0.18-0.46,0.5c-0.02,0.36,0.12,0.48,0.47,0.47c0.36-0.01,0.4-0.21,0.37-0.48
		C82.79,58.65,82.75,58.44,82.39,58.44z"/>
	<path class="st26" d="M90.59,58.44c-0.36,0.01-0.38,0.21-0.4,0.48c-0.02,0.33,0.08,0.48,0.45,0.48c0.36-0.01,0.42-0.18,0.39-0.46
		C91.06,58.62,90.98,58.43,90.59,58.44z"/>
</g>
<path class="st27" d="M26.72,55.38c0.21-0.83,0.44-1.65,0.6-2.49c0.07-0.38,0.24-0.46,0.6-0.47c1.57-0.04,1.57-0.05,1.57,1.52
	c0,0.93-0.03,1.86,0,2.79c0.02,0.5-0.26,0.47-0.6,0.48c-0.35,0-0.62,0.01-0.6-0.48c0.04-1.08,0.01-2.15-0.11-3.25
	c-0.3,1.06-0.6,2.11-0.88,3.17c-0.11,0.41-0.28,0.57-0.74,0.58c-0.47,0-0.62-0.18-0.73-0.58c-0.28-1.06-0.58-2.12-0.99-3.16
	c0,1.08-0.02,2.16,0.01,3.24c0.01,0.4-0.13,0.52-0.51,0.48c-0.3-0.03-0.63,0.08-0.61-0.45c0.04-1.29,0.02-2.59,0.01-3.88
	c0-0.31,0.07-0.48,0.42-0.44c0.05,0.01,0.09,0,0.14,0c1.5-0.03,1.5-0.03,1.88,1.39c0.14,0.52,0.27,1.04,0.41,1.55
	C26.62,55.37,26.67,55.37,26.72,55.38z"/>
<path class="st28" d="M18.92,52.44c0.94,0,1.88-0.09,2.81,0.1c0.57,0.12,1.01,0.34,1.06,0.97c0.05,0.62-0.29,0.97-0.87,1.13
	c0.02,0.04,0.03,0.09,0.05,0.1c0.62,0.25,1.08,0.6,0.96,1.36c-0.12,0.77-0.72,0.94-1.35,1.03c-0.89,0.13-1.8,0.05-2.7,0.06
	C18.81,55.6,18.74,54.02,18.92,52.44z"/>
<path class="st29" d="M31.73,57.18c-0.18,0.01-0.36,0.02-0.53,0.03c-0.61,0.09-0.75-0.2-0.73-0.77c0.05-1.17,0.04-2.35,0-3.52
	c-0.02-0.54,0.27-0.51,0.64-0.5c0.33,0.01,0.67-0.09,0.65,0.48C31.71,54.33,31.73,55.75,31.73,57.18z"/>
<path class="st11" d="M18.92,52.44c-0.01,1.58-0.02,3.17-0.04,4.75c-0.21-0.18-0.13-0.42-0.13-0.63c-0.01-1.15-0.01-2.29,0-3.44
	C18.76,52.89,18.65,52.61,18.92,52.44z"/>
<path class="st30" d="M15.2,51.16c-0.08-0.67,0.37-0.64,0.84-0.64c5.65,0.01,11.31,0.01,16.96,0.01c0.69,0,1.38-0.01,2.07-0.02
	c0.24,0.11,0.38,0.29,0.26,0.54c-0.12,0.26-0.41,0.15-0.62,0.15c-4.96,0.01-9.93,0.01-14.89,0C18.28,51.21,16.74,51.18,15.2,51.16z"
	/>
<path class="st31" d="M20.59,55.14c0.56,0.02,1.06-0.03,1.06,0.6c0.01,0.66-0.53,0.59-0.98,0.65c-0.48,0.06-0.59-0.17-0.55-0.58
	C20.16,55.43,20.04,54.95,20.59,55.14z"/>
<path class="st32" d="M20.64,53.23c0.56,0,0.96,0.06,0.92,0.6c-0.04,0.6-0.55,0.46-0.94,0.52c-0.58,0.09-0.46-0.3-0.49-0.62
	C20.07,53.18,20.4,53.2,20.64,53.23z"/>
</svg>
